<svg id="svg" version="1.1" xmlns="http://www.w3.org/2000/svg" xmlns:xlink="http://www.w3.org/1999/xlink" width="400" height="396.51500484027105" viewBox="0, 0, 400,396.51500484027105"><g id="svgg"><path id="path0" d="M113.293 164.232 C 64.919 168.881,27.638 201.114,18.037 246.588 C 10.954 280.132,17.535 311.913,37.495 340.561 C 42.017 347.051,50.655 354.444,49.825 351.113 C 49.705 350.634,49.251 348.848,48.814 347.144 C 46.890 339.625,48.665 329.594,53.963 318.062 C 54.951 315.910,55.769 313.906,55.780 313.609 C 55.791 313.312,56.484 314.985,57.320 317.328 C 63.819 335.532,81.427 359.751,92.062 365.111 C 94.255 366.216,94.212 366.076,90.469 359.996 C 84.865 350.895,83.827 346.908,83.847 334.560 C 83.912 294.521,116.328 237.410,155.663 208.035 C 168.677 198.317,180.874 193.371,193.778 192.582 L 197.868 192.332 194.868 189.266 C 178.167 172.196,142.931 161.383,113.293 164.232 M165.731 180.767 C 170.259 181.585,173.470 182.533,175.812 183.743 L 177.112 184.416 174.229 185.135 C 157.084 189.407,122.140 215.137,97.035 241.974 C 79.515 260.701,57.463 290.301,54.406 299.192 L 53.913 300.628 53.107 299.049 C 49.317 291.619,49.417 263.371,53.287 248.219 C 62.393 212.575,94.579 185.105,132.917 180.258 C 139.763 179.393,159.845 179.704,165.731 180.767 M174.637 200.867 C 174.318 200.991,173.117 201.805,171.969 202.676 C 170.821 203.547,169.427 204.599,168.871 205.014 C 167.187 206.271,165.739 208.025,166.011 208.478 C 166.152 208.714,165.962 208.659,165.590 208.357 C 165.217 208.054,164.966 207.967,165.031 208.163 C 165.097 208.359,164.976 208.573,164.763 208.639 C 164.550 208.705,164.246 209.108,164.088 209.535 C 163.931 209.962,163.621 210.200,163.401 210.064 C 163.181 209.928,163.049 210.047,163.108 210.329 C 163.166 210.613,162.955 210.785,162.633 210.713 C 162.314 210.642,162.186 210.718,162.349 210.881 C 162.512 211.044,162.129 211.712,161.497 212.365 C 159.416 214.517,157.603 216.646,157.601 216.941 C 157.600 217.101,157.294 217.567,156.922 217.978 C 155.805 219.209,155.444 219.714,155.172 220.426 C 155.029 220.799,154.733 221.104,154.514 221.104 C 154.294 221.104,154.114 221.350,154.114 221.652 C 154.114 221.954,153.984 222.259,153.824 222.330 C 153.261 222.580,150.269 227.197,150.512 227.440 C 150.648 227.576,150.595 227.686,150.395 227.686 C 150.195 227.686,149.695 228.340,149.284 229.138 C 148.874 229.937,148.297 230.882,148.003 231.237 C 147.327 232.054,145.825 234.716,144.764 236.980 C 144.314 237.938,143.791 238.984,143.601 239.303 C 143.114 240.124,142.108 242.341,142.066 242.689 C 142.046 242.850,141.633 243.679,141.148 244.530 C 140.413 245.821,140.062 246.747,139.609 248.596 C 139.352 249.646,138.066 253.138,137.823 253.449 C 137.650 253.668,137.426 254.278,137.324 254.804 C 137.221 255.330,136.863 256.522,136.526 257.454 C 136.190 258.386,135.915 259.615,135.915 260.184 C 135.915 260.754,135.706 261.429,135.450 261.684 C 135.195 261.940,135.114 262.149,135.270 262.149 C 135.427 262.149,135.382 262.473,135.170 262.868 C 134.958 263.264,134.742 264.223,134.690 264.998 C 134.638 265.774,134.485 266.409,134.351 266.409 C 134.218 266.409,134.135 266.767,134.167 267.205 C 134.199 267.643,133.999 269.081,133.723 270.400 C 133.446 271.719,133.111 273.669,132.977 274.734 C 132.843 275.799,132.659 277.193,132.568 277.832 C 131.797 283.259,131.834 293.820,132.657 303.001 C 132.791 304.492,132.910 305.929,132.923 306.196 C 132.936 306.462,133.062 306.680,133.204 306.680 C 133.346 306.680,133.472 306.897,133.484 307.164 C 133.560 308.894,134.119 312.714,134.319 312.875 C 134.451 312.982,134.598 313.271,134.645 313.518 C 134.691 313.765,134.823 314.496,134.937 315.143 C 135.051 315.791,135.313 316.765,135.520 317.308 C 135.727 317.852,135.791 318.296,135.664 318.296 C 135.537 318.296,135.614 318.514,135.834 318.780 C 136.055 319.046,136.243 319.396,136.252 319.558 C 136.312 320.663,136.857 322.786,137.125 322.961 C 137.303 323.077,137.528 323.794,137.625 324.554 C 137.722 325.313,138.355 327.135,139.031 328.602 C 139.707 330.068,140.606 332.052,141.029 333.011 C 142.245 335.768,143.034 337.391,143.645 338.393 C 143.957 338.904,144.250 339.584,144.297 339.903 C 144.344 340.223,144.538 340.589,144.729 340.716 C 144.920 340.844,145.323 341.515,145.624 342.207 C 145.925 342.899,146.276 343.466,146.403 343.466 C 146.531 343.466,147.039 344.250,147.531 345.208 C 148.024 346.167,148.575 346.951,148.754 346.951 C 148.933 346.951,149.080 347.187,149.080 347.477 C 149.080 347.766,149.689 348.768,150.432 349.703 C 151.175 350.639,151.785 351.583,151.787 351.802 C 151.789 352.021,152.139 352.452,152.565 352.759 C 152.991 353.066,153.340 353.461,153.340 353.637 C 153.340 353.813,153.775 354.361,154.308 354.855 C 154.840 355.348,155.276 355.887,155.276 356.053 C 155.276 356.218,155.799 356.853,156.438 357.464 C 157.076 358.074,157.599 358.661,157.599 358.766 C 157.599 358.872,158.427 359.777,159.439 360.776 C 160.450 361.776,161.234 362.733,161.181 362.904 C 161.128 363.074,161.228 363.214,161.404 363.214 C 161.579 363.214,163.051 364.521,164.675 366.118 C 166.298 367.715,167.839 369.022,168.098 369.022 C 168.358 369.022,168.460 369.133,168.325 369.267 C 168.063 369.530,169.694 370.958,170.256 370.958 C 170.442 370.958,170.845 371.307,171.152 371.733 C 171.459 372.159,171.927 372.507,172.192 372.507 C 172.457 372.507,172.860 372.856,173.088 373.282 C 173.316 373.708,173.758 374.056,174.070 374.056 C 174.382 374.056,174.637 374.241,174.637 374.466 C 174.637 374.692,174.779 374.788,174.954 374.681 C 175.128 374.573,175.508 374.815,175.799 375.218 C 176.089 375.621,176.446 375.877,176.592 375.787 C 176.738 375.697,177.168 375.968,177.549 376.389 C 177.930 376.810,178.397 377.154,178.585 377.154 C 178.774 377.154,179.303 377.502,179.760 377.928 C 180.217 378.354,180.820 378.703,181.099 378.703 C 181.378 378.703,181.607 378.887,181.607 379.112 C 181.607 379.337,182.435 379.886,183.446 380.331 C 184.458 380.777,185.808 381.508,186.447 381.955 C 187.086 382.403,187.870 382.825,188.190 382.894 C 188.509 382.964,188.829 383.182,188.900 383.379 C 188.971 383.576,189.288 383.737,189.605 383.737 C 189.922 383.737,190.443 383.998,190.762 384.318 C 191.081 384.637,191.679 384.898,192.090 384.898 C 192.500 384.898,192.836 385.073,192.836 385.286 C 192.836 385.499,193.150 385.673,193.533 385.673 C 193.917 385.673,194.396 385.826,194.598 386.012 C 194.801 386.199,196.010 386.735,197.285 387.203 C 198.560 387.671,199.780 388.191,199.995 388.358 C 200.211 388.525,201.258 388.966,202.323 389.338 C 203.388 389.710,204.608 390.156,205.034 390.330 C 205.998 390.724,207.888 391.143,208.070 391.004 C 208.145 390.947,208.494 391.139,208.847 391.432 C 209.199 391.724,209.487 391.864,209.487 391.742 C 209.487 391.620,210.094 391.774,210.835 392.084 C 211.577 392.394,212.317 392.626,212.481 392.599 C 212.645 392.573,212.909 392.593,213.069 392.645 C 213.228 392.697,213.533 392.783,213.746 392.836 C 213.959 392.890,214.177 392.977,214.230 393.031 C 214.284 393.085,214.719 393.194,215.198 393.273 C 215.678 393.352,216.462 393.482,216.941 393.561 C 217.420 393.641,217.856 393.750,217.909 393.803 C 217.962 393.857,218.354 393.945,218.780 393.998 C 219.206 394.051,219.598 394.131,219.652 394.176 C 219.705 394.220,220.097 394.315,220.523 394.387 C 221.911 394.621,224.374 395.012,225.363 395.155 C 225.895 395.232,227.001 395.408,227.819 395.547 C 231.658 396.199,248.624 396.512,252.662 396.006 C 253.514 395.899,255.511 395.696,257.101 395.554 C 258.690 395.413,260.160 395.193,260.366 395.065 C 260.572 394.938,261.189 394.782,261.736 394.719 C 262.282 394.656,263.253 394.500,263.892 394.372 C 264.530 394.244,265.394 394.143,265.810 394.148 C 266.226 394.152,266.749 394.021,266.972 393.857 C 267.194 393.692,267.871 393.527,268.476 393.489 C 269.081 393.451,269.770 393.300,270.007 393.153 C 270.245 393.006,270.905 392.835,271.474 392.773 C 272.043 392.711,273.010 392.451,273.621 392.196 C 274.233 391.941,275.154 391.684,275.668 391.625 C 276.181 391.566,276.745 391.292,276.920 391.015 C 277.095 390.739,277.242 390.665,277.245 390.851 C 277.248 391.037,277.469 391.008,277.735 390.787 C 278.001 390.566,278.349 390.370,278.509 390.352 C 278.669 390.334,278.843 390.307,278.896 390.291 C 278.950 390.275,279.425 390.183,279.953 390.086 C 280.481 389.989,281.082 389.741,281.289 389.534 C 281.496 389.327,282.066 389.158,282.556 389.158 C 283.045 389.158,283.446 388.973,283.446 388.748 C 283.446 388.522,283.621 388.445,283.833 388.577 C 284.046 388.709,284.221 388.646,284.221 388.437 C 284.221 388.228,284.765 387.938,285.430 387.792 C 286.095 387.646,287.184 387.217,287.850 386.839 C 288.516 386.461,289.889 385.846,290.900 385.473 C 291.912 385.099,292.740 384.643,292.740 384.459 C 292.740 384.274,293.088 384.124,293.514 384.124 C 293.940 384.124,294.288 383.969,294.288 383.779 C 294.288 383.589,294.712 383.327,295.229 383.197 C 295.747 383.067,296.400 382.743,296.682 382.475 C 296.963 382.208,298.020 381.571,299.032 381.060 C 300.044 380.548,300.871 379.983,300.871 379.804 C 300.871 379.624,301.193 379.477,301.586 379.477 C 301.979 379.477,302.597 379.150,302.959 378.749 C 303.841 377.774,302.943 377.545,298.303 377.562 C 296.415 377.568,294.259 377.382,293.514 377.148 C 292.769 376.914,291.735 376.636,291.218 376.530 C 290.700 376.425,290.090 376.222,289.863 376.080 C 289.635 375.937,289.200 375.783,288.896 375.737 C 288.592 375.691,287.808 375.403,287.153 375.096 C 286.499 374.790,284.961 374.084,283.737 373.527 C 282.512 372.971,281.510 372.329,281.510 372.101 C 281.510 371.874,281.336 371.795,281.123 371.926 C 280.910 372.058,280.736 371.952,280.736 371.691 C 280.736 371.430,280.625 371.327,280.491 371.462 C 280.224 371.729,276.864 369.452,276.864 369.004 C 276.864 368.853,276.341 368.512,275.702 368.248 C 275.063 367.983,274.540 367.623,274.540 367.448 C 274.540 367.125,272.983 366.154,271.733 365.695 C 271.360 365.559,271.055 365.283,271.055 365.082 C 271.055 364.881,270.881 364.825,270.668 364.956 C 270.455 365.088,270.281 365.031,270.281 364.830 C 270.281 364.535,267.972 363.178,267.183 363.008 C 267.076 362.985,266.292 362.767,265.440 362.523 C 264.201 362.167,263.041 362.211,259.632 362.743 C 240.169 365.779,210.338 358.623,192.449 346.629 C 157.212 323.001,142.911 276.646,157.605 233.680 C 159.148 229.169,164.364 217.900,165.415 216.807 C 165.703 216.508,166.239 215.294,166.606 214.110 C 167.333 211.764,170.814 206.247,173.635 202.969 C 174.612 201.834,175.411 200.832,175.411 200.743 C 175.411 200.562,175.435 200.558,174.637 200.867 " stroke="none" fill="#8ebccc" fill-rule="evenodd"></path><path id="path1" d="M192.643 0.272 C 192.856 0.471,194.511 1.827,196.321 3.286 C 204.949 10.240,207.912 13.909,211.904 22.582 C 215.695 30.820,215.837 31.008,219.835 33.075 C 221.704 34.041,223.917 35.396,224.752 36.086 C 225.587 36.775,226.627 37.394,227.063 37.460 C 229.246 37.794,237.016 42.598,242.788 47.184 C 279.820 76.607,290.848 125.716,269.734 167.177 C 260.448 185.411,243.255 203.059,229.868 208.098 C 228.493 208.616,224.927 210.506,221.943 212.298 C 218.959 214.091,215.502 215.877,214.261 216.268 C 212.037 216.969,212.021 216.985,213.166 217.319 C 217.052 218.453,235.504 213.423,246.184 208.319 C 296.533 184.254,320.958 131.123,305.741 78.762 C 294.509 40.110,262.927 10.849,223.696 2.747 C 213.801 0.703,191.172 -1.100,192.643 0.272 M99.903 58.310 C 99.158 58.396,96.893 58.656,94.869 58.887 C 54.739 63.474,18.493 91.209,3.564 128.755 C 1.883 132.981,0.000 138.722,0.000 139.619 C 0.000 140.302,2.758 138.980,8.132 135.721 C 16.198 130.830,18.758 129.943,27.739 128.928 C 37.328 127.844,37.121 127.912,40.416 124.782 C 41.975 123.301,44.242 121.605,45.454 121.012 C 46.666 120.419,47.852 119.565,48.090 119.115 C 50.923 113.758,67.425 102.943,80.636 97.785 C 134.628 76.706,193.586 108.414,208.380 166.488 C 209.224 169.799,210.152 173.379,210.443 174.443 C 210.734 175.508,211.084 177.861,211.220 179.671 C 211.357 181.481,211.696 184.443,211.974 186.254 L 212.480 189.545 213.474 187.415 C 215.405 183.282,215.838 169.602,214.493 155.276 C 210.141 108.911,175.428 69.811,130.240 60.374 C 122.024 58.659,106.204 57.583,99.903 58.310 M394.633 151.441 C 393.069 159.014,387.079 166.573,376.294 174.581 C 370.590 178.817,370.022 179.495,367.737 184.806 C 366.672 187.282,366.526 188.060,366.488 191.481 C 366.436 196.068,366.202 196.820,362.070 205.668 C 335.110 263.398,270.901 281.117,217.790 245.484 C 209.906 240.194,197.891 228.848,200.174 228.848 C 200.405 228.848,199.352 227.411,197.833 225.654 C 194.351 221.624,190.854 216.793,189.700 214.418 C 188.499 211.945,188.187 212.107,188.202 215.198 C 188.230 220.878,196.943 237.032,206.216 248.596 C 259.380 314.892,367.098 297.209,393.741 217.812 C 400.736 196.964,402.615 162.570,397.330 152.092 C 395.567 148.595,395.238 148.515,394.633 151.441 M299.230 377.428 C 299.712 377.520,300.409 377.517,300.779 377.420 C 301.149 377.323,300.755 377.247,299.903 377.252 C 299.051 377.256,298.748 377.335,299.230 377.428 " stroke="none" fill="#bfaf6f" fill-rule="evenodd"></path><path id="path2" d="M107.862 91.396 C 90.208 93.416,76.328 98.292,61.798 107.579 C 53.471 112.901,49.696 116.078,48.090 119.115 C 47.852 119.565,46.696 120.404,45.521 120.979 C 32.456 127.371,13.455 159.946,9.657 182.463 C 8.904 186.929,9.886 186.227,13.832 179.477 C 15.995 175.776,19.198 172.134,23.804 168.137 C 30.338 162.466,45.156 155.906,59.016 152.549 C 91.791 144.610,143.642 148.310,170.571 160.511 C 171.210 160.800,173.729 161.928,176.169 163.017 C 190.854 169.572,202.020 178.484,209.389 189.531 L 211.962 193.389 212.297 192.097 C 212.515 191.254,212.424 189.373,212.036 186.690 C 211.708 184.427,211.276 180.795,211.075 178.619 C 210.875 176.444,210.618 174.514,210.505 174.331 C 210.392 174.148,209.522 170.953,208.572 167.230 C 198.202 126.611,167.664 98.240,127.558 91.966 C 122.861 91.231,112.042 90.918,107.862 91.396 M132.917 180.258 C 94.579 185.105,62.393 212.575,53.287 248.219 C 49.417 263.371,49.317 291.619,53.107 299.049 L 53.913 300.628 54.406 299.192 C 57.463 290.301,79.515 260.701,97.035 241.974 C 122.140 215.137,157.084 189.407,174.229 185.135 L 177.112 184.416 175.812 183.743 C 169.102 180.274,147.001 178.478,132.917 180.258 M174.618 202.262 C 170.381 207.229,167.338 212.091,166.521 215.198 C 166.283 216.104,165.947 216.844,165.775 216.844 C 163.826 216.844,155.951 237.418,153.979 247.659 C 144.273 298.074,171.730 345.052,218.780 358.529 C 231.648 362.215,250.536 364.373,256.534 362.842 C 257.386 362.624,261.220 362.264,265.053 362.042 C 284.396 360.919,295.446 356.876,323.436 340.679 C 328.402 337.806,323.699 337.431,315.701 340.063 C 269.425 355.291,169.030 259.873,176.392 207.660 C 177.001 203.340,177.020 202.580,176.541 201.681 L 175.992 200.651 174.618 202.262 " stroke="none" fill="#323147" fill-rule="evenodd"></path><path id="path3" d="M364.224 116.263 C 364.765 117.905,364.506 127.072,363.829 130.210 C 356.055 166.243,297.223 208.698,239.519 219.915 C 222.443 223.234,212.079 222.356,195.160 216.159 C 192.285 215.106,189.867 214.300,189.787 214.366 C 189.351 214.732,194.193 221.492,198.106 225.977 C 199.483 227.556,200.417 228.848,200.181 228.848 C 197.892 228.848,209.890 240.183,217.790 245.484 C 273.495 282.858,343.637 260.012,365.761 197.289 C 366.224 195.977,366.456 194.106,366.482 191.481 C 366.517 187.861,366.616 187.394,368.004 184.318 C 370.915 177.867,371.848 173.797,372.529 164.569 C 373.909 145.901,368.735 115.392,364.191 115.392 C 364.051 115.392,364.065 115.784,364.224 116.263 M175.679 200.369 C 175.369 200.678,174.981 200.809,174.815 200.659 C 174.649 200.510,174.640 200.608,174.796 200.878 C 174.968 201.177,174.500 202.027,173.599 203.054 C 171.959 204.923,169.459 208.325,169.726 208.325 C 169.820 208.325,170.869 207.062,172.059 205.518 C 175.543 200.994,176.071 200.430,176.270 201.021 C 176.419 201.467,176.547 201.467,177.087 201.021 C 177.438 200.731,177.631 200.339,177.514 200.150 C 177.194 199.632,176.310 199.737,175.679 200.369 M169.201 204.484 L 167.861 205.676 169.107 204.853 C 170.213 204.123,171.048 203.291,170.676 203.291 C 170.602 203.291,169.939 203.828,169.201 204.484 M165.236 207.942 C 164.444 208.868,164.353 209.374,165.089 208.763 C 165.375 208.526,165.723 208.418,165.863 208.522 C 166.003 208.627,166.032 208.598,165.928 208.458 C 165.823 208.318,165.932 207.969,166.169 207.683 C 166.406 207.397,166.443 207.164,166.252 207.164 C 166.060 207.164,165.603 207.514,165.236 207.942 M162.804 210.397 C 160.925 212.333,160.806 212.950,162.660 211.146 C 163.583 210.248,164.259 209.438,164.163 209.346 C 164.067 209.254,163.456 209.727,162.804 210.397 M167.455 211.846 C 167.114 212.505,166.904 213.113,166.988 213.197 C 167.072 213.281,167.431 212.742,167.785 211.999 C 168.581 210.329,168.305 210.201,167.455 211.846 M159.727 213.749 C 159.340 214.176,159.115 214.617,159.227 214.729 C 159.339 214.841,159.719 214.491,160.073 213.952 C 160.844 212.774,160.691 212.684,159.727 213.749 M143.327 239.162 C 142.861 240.200,142.871 240.230,143.483 239.631 C 143.842 239.280,144.066 238.781,143.980 238.523 C 143.894 238.265,143.600 238.552,143.327 239.162 M138.084 251.949 C 137.738 252.963,137.607 253.626,137.794 253.422 C 138.224 252.949,139.066 250.457,138.864 250.255 C 138.781 250.172,138.430 250.934,138.084 251.949 M151.941 267.377 C 151.942 270.145,152.004 271.227,152.078 269.781 C 152.153 268.334,152.153 266.069,152.077 264.747 C 152.002 263.425,151.941 264.608,151.941 267.377 M131.745 292.740 C 131.745 293.485,131.825 293.790,131.922 293.417 C 132.020 293.045,132.020 292.435,131.922 292.062 C 131.825 291.689,131.745 291.994,131.745 292.740 M132.132 297.773 C 132.132 298.519,132.212 298.824,132.310 298.451 C 132.407 298.078,132.407 297.469,132.310 297.096 C 132.212 296.723,132.132 297.028,132.132 297.773 M136.964 323.717 C 137.076 324.143,137.304 324.492,137.473 324.492 C 137.641 324.492,137.687 324.143,137.576 323.717 C 137.465 323.291,137.236 322.943,137.068 322.943 C 136.899 322.943,136.853 323.291,136.964 323.717 M139.414 330.126 C 139.421 330.328,139.690 330.929,140.011 331.462 L 140.594 332.430 140.340 331.462 C 140.076 330.452,139.389 329.461,139.414 330.126 M179.090 335.721 C 180.998 337.638,182.646 339.206,182.752 339.206 C 182.859 339.206,181.385 337.638,179.477 335.721 C 177.569 333.804,175.921 332.236,175.815 332.236 C 175.708 332.236,177.182 333.804,179.090 335.721 M140.575 332.840 C 140.600 333.489,141.696 335.169,141.697 334.560 C 141.698 334.240,141.443 333.640,141.130 333.227 C 140.817 332.814,140.568 332.639,140.575 332.840 M143.342 338.625 C 143.585 339.158,143.934 339.593,144.118 339.593 C 144.301 339.593,144.166 339.158,143.817 338.625 C 143.468 338.093,143.120 337.657,143.042 337.657 C 142.965 337.657,143.100 338.093,143.342 338.625 M150.665 350.436 C 151.787 352.174,151.791 352.179,151.789 351.759 C 151.788 351.563,151.338 350.881,150.789 350.242 L 149.791 349.080 150.665 350.436 M154.069 354.964 C 154.309 355.431,154.679 355.921,154.891 356.052 C 155.554 356.462,155.312 355.862,154.454 354.969 L 153.631 354.114 154.069 354.964 M155.663 356.968 C 155.663 357.135,156.099 357.680,156.631 358.180 C 157.164 358.680,157.599 358.980,157.599 358.846 C 157.599 358.712,157.164 358.167,156.631 357.634 C 156.099 357.102,155.663 356.802,155.663 356.968 M158.840 360.474 C 159.359 361.203,160.207 362.051,160.724 362.357 L 161.665 362.914 160.697 362.062 C 160.165 361.594,159.317 360.746,158.813 360.179 C 157.906 359.158,157.906 359.161,158.840 360.474 M261.084 362.319 C 261.457 362.417,262.067 362.417,262.439 362.319 C 262.812 362.222,262.507 362.142,261.762 362.142 C 261.016 362.142,260.712 362.222,261.084 362.319 M250.040 363.493 C 250.727 363.579,251.947 363.580,252.750 363.497 C 253.554 363.413,252.991 363.343,251.500 363.341 C 250.010 363.339,249.352 363.408,250.040 363.493 M164.548 366.444 C 165.941 367.923,166.118 368.050,166.118 367.570 C 166.118 367.410,165.465 366.773,164.666 366.153 L 163.214 365.026 164.548 366.444 M276.864 369.118 C 276.864 369.206,277.648 369.841,278.606 370.530 C 279.564 371.218,280.346 371.639,280.344 371.466 C 280.341 371.293,279.688 370.716,278.892 370.184 C 277.268 369.098,276.864 368.885,276.864 369.118 M184.534 381.207 C 184.947 381.520,185.460 381.776,185.673 381.776 C 185.886 381.776,185.722 381.520,185.308 381.207 C 184.895 380.895,184.382 380.639,184.170 380.639 C 183.957 380.639,184.121 380.895,184.534 381.207 M297.870 381.553 C 297.391 381.790,296.999 382.123,296.999 382.293 C 296.999 382.666,298.407 381.954,298.743 381.411 C 298.874 381.199,298.927 381.048,298.861 381.074 C 298.795 381.100,298.349 381.315,297.870 381.553 M287.996 386.669 C 286.495 387.483,286.665 387.764,288.190 386.989 C 289.649 386.246,289.908 386.054,289.416 386.076 C 289.221 386.084,288.582 386.351,287.996 386.669 " stroke="none" fill="#9e1763" fill-rule="evenodd"></path><path id="path4" d="M154.114 23.306 L 154.114 24.658 157.740 25.104 C 188.283 28.857,218.576 79.789,226.756 141.142 C 230.727 170.926,226.884 193.591,214.939 210.842 C 212.579 214.250,210.820 217.095,211.031 217.165 C 211.968 217.478,217.430 215.027,222.162 212.171 C 225.002 210.457,228.460 208.628,229.847 208.106 C 243.256 203.059,260.441 185.425,269.734 167.177 C 290.848 125.716,279.820 76.607,242.788 47.184 C 237.016 42.598,229.246 37.794,227.063 37.460 C 226.627 37.394,225.601 36.788,224.783 36.113 C 215.153 28.175,192.047 22.718,165.828 22.190 L 154.114 21.954 154.114 23.306 " stroke="none" fill="#ae2e17" fill-rule="evenodd"></path></g></svg>