<svg id="svg" version="1.1" xmlns="http://www.w3.org/2000/svg" xmlns:xlink="http://www.w3.org/1999/xlink" width="400" height="410.8333333333333" viewBox="0, 0, 400,410.8333333333333"><g id="svgg"><path id="path0" d="M186.400 60.467 C 179.423 61.285,176.508 61.679,175.000 62.009 C 174.120 62.202,171.780 62.661,169.800 63.029 C 136.770 69.175,104.370 90.054,82.329 119.400 C 79.700 122.899,78.086 125.234,76.608 127.674 C 72.082 135.146,68.035 142.729,66.293 147.000 C 65.934 147.880,65.078 149.950,64.390 151.600 C 63.192 154.475,60.684 161.811,59.605 165.600 C 58.605 169.110,58.418 169.837,57.650 173.200 C 53.549 191.155,52.874 209.215,55.624 227.400 C 56.730 234.713,57.585 238.850,59.139 244.400 C 59.354 245.170,59.822 246.880,60.178 248.200 C 63.179 259.332,63.971 258.246,63.987 242.975 C 64.004 227.925,63.660 228.400,74.552 228.400 L 80.729 228.400 81.764 227.169 L 82.800 225.939 82.800 215.619 C 82.800 200.369,82.576 200.800,90.508 200.800 C 96.434 200.800,98.436 200.349,99.824 198.699 L 100.800 197.539 100.800 186.444 L 100.800 175.350 101.900 174.324 C 103.845 172.510,104.407 172.401,111.874 172.387 C 122.231 172.369,121.599 173.378,121.602 156.854 C 121.604 143.081,121.605 143.077,124.760 142.045 C 127.037 141.300,158.317 141.439,160.143 142.202 C 163.272 143.509,162.976 135.945,163.200 220.382 L 163.400 295.800 167.400 295.800 L 171.400 295.800 171.600 290.800 C 171.951 282.033,169.265 282.800,199.600 282.800 C 230.095 282.800,227.270 282.013,227.600 290.600 L 227.800 295.800 232.200 295.800 L 236.600 295.800 236.803 220.000 C 236.914 178.310,237.049 144.183,237.103 144.161 C 237.156 144.140,237.575 143.690,238.033 143.161 L 238.867 142.200 256.933 142.077 C 280.841 141.914,278.400 140.191,278.400 157.233 C 278.400 173.169,277.847 172.399,289.287 172.402 C 295.981 172.404,296.238 172.434,297.400 173.363 L 298.600 174.323 298.800 185.995 L 299.000 197.667 300.306 198.833 L 301.613 200.000 307.793 200.000 L 313.973 200.000 315.387 201.413 L 316.800 202.827 316.813 214.313 C 316.826 226.464,316.810 226.354,318.789 227.718 C 319.622 228.292,320.809 228.400,326.303 228.400 C 336.349 228.400,336.000 227.856,336.000 243.538 C 336.000 252.934,336.094 254.780,336.595 255.196 C 337.072 255.591,337.227 255.581,337.375 255.145 C 339.703 248.281,339.743 248.148,341.566 241.000 C 347.101 219.295,347.172 190.931,341.741 171.242 C 341.401 170.009,340.977 168.370,340.798 167.600 C 340.620 166.830,340.114 165.030,339.673 163.600 C 330.537 133.933,312.841 108.443,288.400 89.740 C 285.042 87.170,276.970 81.600,276.605 81.600 C 276.450 81.600,275.827 81.246,275.220 80.814 C 272.193 78.659,260.016 72.585,254.400 70.429 C 252.530 69.711,250.640 68.968,250.200 68.777 C 244.374 66.253,230.286 62.762,219.800 61.245 C 211.156 59.994,193.876 59.592,186.400 60.467 M234.509 101.229 L 236.000 102.458 236.000 116.754 L 236.000 131.050 234.774 132.225 L 233.548 133.400 200.274 133.502 C 163.266 133.616,165.042 133.740,163.990 130.974 C 163.474 129.617,163.474 103.983,163.990 102.626 C 165.034 99.879,163.334 100.003,200.009 100.001 L 233.018 100.000 234.509 101.229 M224.936 142.375 C 227.994 143.538,229.008 152.011,226.433 154.894 L 225.266 156.200 200.623 156.309 C 187.070 156.369,175.400 156.268,174.690 156.084 C 170.674 155.045,170.198 143.981,174.103 142.412 C 175.314 141.925,223.659 141.890,224.936 142.375 M226.433 167.106 C 227.566 168.374,227.600 168.537,227.600 172.620 C 227.600 180.522,229.579 180.000,199.600 180.000 C 169.639 180.000,171.600 180.513,171.600 172.668 C 171.600 165.140,169.610 165.625,200.133 165.721 L 225.266 165.800 226.433 167.106 M224.986 188.968 C 228.056 190.251,228.904 198.560,226.253 201.372 L 224.906 202.800 199.742 202.800 C 169.262 202.800,171.635 203.383,171.613 195.886 C 171.598 191.055,172.027 189.901,174.181 188.962 C 176.042 188.152,223.045 188.157,224.986 188.968 M225.611 212.682 C 227.412 213.923,227.574 214.418,227.587 218.726 C 227.600 222.999,227.306 224.114,225.853 225.291 C 225.065 225.930,223.059 225.983,199.541 225.991 L 174.083 226.000 172.841 224.586 C 171.620 223.195,171.600 223.103,171.600 218.946 L 171.600 214.720 172.960 213.360 L 174.320 212.000 199.471 212.000 C 222.513 212.000,224.705 212.057,225.611 212.682 M225.604 236.266 C 228.795 238.151,228.472 247.708,225.160 249.420 C 223.080 250.496,175.492 250.262,173.956 249.168 C 170.570 246.758,170.706 237.735,174.152 236.065 C 175.773 235.280,224.256 235.469,225.604 236.266 M224.974 259.190 C 228.688 260.602,228.688 271.398,224.974 272.810 C 224.348 273.048,214.449 273.200,199.600 273.200 C 184.751 273.200,174.852 273.048,174.226 272.810 C 170.684 271.463,170.440 261.306,173.905 259.426 C 175.222 258.711,223.132 258.490,224.974 259.190 M237.400 302.418 C 221.340 302.585,199.200 302.915,188.200 303.152 C 177.200 303.388,151.145 303.705,130.300 303.856 C 109.455 304.007,92.400 304.251,92.400 304.399 C 92.400 304.546,93.010 305.372,93.755 306.233 L 95.110 307.800 130.455 307.701 C 149.895 307.647,173.270 307.418,182.400 307.193 C 207.878 306.565,255.129 305.999,282.019 305.999 L 306.238 306.000 307.793 304.407 C 308.648 303.531,309.210 302.676,309.041 302.507 C 308.625 302.092,273.071 302.048,237.400 302.418 M253.128 317.805 C 253.015 317.918,245.290 318.189,235.961 318.407 C 226.633 318.626,214.140 318.971,208.200 319.175 C 202.260 319.379,185.790 319.828,171.600 320.174 C 157.410 320.519,141.120 320.982,135.400 321.201 C 129.680 321.421,121.985 321.601,118.300 321.600 C 114.615 321.600,111.600 321.743,111.600 321.918 C 111.600 322.677,116.893 326.174,117.350 325.717 C 117.490 325.577,127.369 325.222,139.302 324.929 C 168.297 324.217,188.444 323.689,205.600 323.192 C 213.410 322.966,226.100 322.600,233.800 322.379 C 241.500 322.158,257.175 321.873,268.634 321.746 L 289.469 321.515 291.634 319.575 L 293.800 317.635 273.567 317.617 C 262.438 317.608,253.241 317.692,253.128 317.805 M221.000 336.853 C 131.864 337.937,136.989 337.781,140.437 339.305 C 141.187 339.636,142.676 340.299,143.747 340.777 C 146.075 341.819,164.818 341.962,196.800 341.182 C 206.590 340.943,224.410 340.609,236.400 340.440 L 258.200 340.133 260.200 339.088 C 261.300 338.513,262.734 337.843,263.386 337.598 C 266.813 336.315,266.145 336.303,221.000 336.853 " stroke="none" fill="#fbfaf8" fill-rule="evenodd"></path><path id="path1" d="M181.380 20.772 C 181.171 20.976,179.470 21.242,177.600 21.361 C 171.268 21.766,168.800 22.067,168.800 22.434 C 168.800 22.635,167.731 22.800,166.424 22.800 C 165.117 22.800,163.936 22.980,163.800 23.200 C 163.664 23.420,162.789 23.600,161.856 23.600 C 160.923 23.600,159.986 23.774,159.773 23.987 C 159.561 24.199,158.784 24.419,158.047 24.475 C 157.310 24.531,156.619 24.807,156.511 25.089 C 156.393 25.396,155.615 25.600,154.557 25.600 C 153.591 25.600,152.800 25.780,152.800 26.000 C 152.800 26.220,152.080 26.400,151.200 26.400 C 150.320 26.400,149.600 26.580,149.600 26.800 C 149.600 27.020,149.060 27.200,148.400 27.200 C 147.740 27.200,147.200 27.380,147.200 27.600 C 147.200 27.820,146.491 28.000,145.624 28.000 C 144.757 28.000,143.936 28.180,143.800 28.400 C 143.664 28.620,143.023 28.800,142.376 28.800 C 141.729 28.800,141.200 28.980,141.200 29.200 C 141.200 29.420,140.660 29.600,140.000 29.600 C 139.340 29.600,138.800 29.780,138.800 30.000 C 138.800 30.220,138.438 30.400,137.995 30.400 C 137.552 30.400,136.832 30.580,136.395 30.800 C 135.958 31.020,135.242 31.380,134.805 31.600 C 134.368 31.820,133.558 32.000,133.005 32.000 C 132.452 32.000,132.000 32.147,132.000 32.328 C 132.000 32.508,131.100 32.900,130.000 33.200 C 128.900 33.500,128.000 33.892,128.000 34.072 C 128.000 34.253,127.640 34.400,127.200 34.400 C 126.756 34.400,126.400 34.667,126.400 35.000 C 126.400 35.397,126.003 35.600,125.224 35.600 C 124.577 35.600,123.936 35.780,123.800 36.000 C 123.664 36.220,123.203 36.400,122.776 36.400 C 122.349 36.400,122.000 36.580,122.000 36.800 C 122.000 37.020,121.640 37.200,121.200 37.200 C 120.760 37.200,120.400 37.380,120.400 37.600 C 120.400 37.820,120.040 38.000,119.600 38.000 C 119.160 38.000,118.800 38.180,118.800 38.400 C 118.800 38.620,118.440 38.800,118.000 38.800 C 117.560 38.800,117.200 38.980,117.200 39.200 C 117.200 39.420,116.840 39.600,116.400 39.600 C 115.960 39.600,115.600 39.780,115.600 40.000 C 115.600 40.220,115.150 40.400,114.600 40.400 C 114.050 40.400,113.600 40.580,113.600 40.800 C 113.600 41.020,113.240 41.200,112.800 41.200 C 112.360 41.200,112.000 41.380,112.000 41.600 C 112.000 41.820,111.640 42.000,111.200 42.000 C 110.760 42.000,110.400 42.168,110.400 42.373 C 110.400 42.578,110.061 42.854,109.648 42.985 C 109.234 43.116,108.490 43.575,107.996 44.004 C 107.501 44.432,106.940 44.687,106.748 44.568 C 106.557 44.450,106.400 44.633,106.400 44.976 C 106.400 45.327,106.060 45.600,105.624 45.600 C 105.197 45.600,104.736 45.780,104.600 46.000 C 104.464 46.220,103.993 46.400,103.553 46.400 C 103.113 46.400,102.864 46.580,103.000 46.800 C 103.136 47.020,102.967 47.200,102.624 47.200 C 102.281 47.200,102.000 47.380,102.000 47.600 C 102.000 47.820,101.764 48.000,101.475 48.000 C 101.187 48.000,100.564 48.360,100.092 48.800 C 99.620 49.240,98.996 49.600,98.705 49.600 C 98.414 49.600,97.917 49.960,97.600 50.400 C 97.283 50.840,96.743 51.200,96.400 51.200 C 96.057 51.200,95.517 51.560,95.200 52.000 C 94.883 52.440,94.348 52.802,94.012 52.805 C 93.342 52.811,91.867 53.889,89.777 55.900 C 89.035 56.615,88.223 57.200,87.974 57.200 C 87.725 57.200,87.017 57.740,86.400 58.400 C 85.783 59.060,85.021 59.600,84.705 59.600 C 84.389 59.600,83.207 60.500,82.077 61.600 C 80.948 62.700,79.887 63.600,79.719 63.600 C 79.551 63.600,78.485 64.590,77.349 65.800 C 76.214 67.010,75.162 68.000,75.011 68.000 C 74.861 68.000,74.046 68.720,73.200 69.600 C 72.354 70.480,71.456 71.200,71.203 71.200 C 70.740 71.200,69.600 72.162,69.600 72.552 C 69.600 72.668,68.700 73.662,67.600 74.762 C 66.500 75.862,65.600 77.040,65.600 77.381 C 65.600 77.721,65.412 78.000,65.182 78.000 C 64.671 78.000,58.800 83.916,58.800 84.431 C 58.800 84.634,58.620 84.800,58.400 84.800 C 58.180 84.800,58.000 85.086,58.000 85.435 C 58.000 85.784,57.010 87.020,55.800 88.183 C 54.590 89.346,53.600 90.434,53.600 90.601 C 53.600 90.769,53.284 91.197,52.897 91.553 C 52.511 91.909,51.940 92.695,51.630 93.300 C 51.319 93.905,50.915 94.400,50.732 94.400 C 50.550 94.400,50.400 94.630,50.400 94.912 C 50.400 95.193,50.040 95.683,49.600 96.000 C 49.160 96.317,48.800 96.857,48.800 97.200 C 48.800 97.543,48.440 98.083,48.000 98.400 C 47.560 98.717,47.200 99.257,47.200 99.600 C 47.200 99.943,46.840 100.483,46.400 100.800 C 45.960 101.117,45.600 101.615,45.600 101.906 C 45.600 102.198,45.150 102.886,44.600 103.436 C 44.050 103.986,43.600 104.658,43.600 104.930 C 43.600 105.201,43.240 105.683,42.800 106.000 C 42.360 106.317,42.000 106.857,42.000 107.200 C 42.000 107.543,41.640 108.083,41.200 108.400 C 40.760 108.717,40.400 109.297,40.400 109.688 C 40.400 110.080,40.220 110.400,40.000 110.400 C 39.780 110.400,39.600 110.760,39.600 111.200 C 39.600 111.640,39.420 112.000,39.200 112.000 C 38.980 112.000,38.800 112.281,38.800 112.624 C 38.800 112.967,38.620 113.136,38.400 113.000 C 38.173 112.860,38.000 113.196,38.000 113.776 C 38.000 114.339,37.820 114.800,37.600 114.800 C 37.380 114.800,37.200 115.160,37.200 115.600 C 37.200 116.040,37.020 116.400,36.800 116.400 C 36.580 116.400,36.400 116.760,36.400 117.200 C 36.400 117.640,36.220 118.000,36.000 118.000 C 35.780 118.000,35.600 118.341,35.600 118.757 C 35.600 119.174,35.330 119.618,35.000 119.745 C 34.670 119.871,34.400 120.251,34.400 120.587 C 34.400 120.924,34.220 121.200,34.000 121.200 C 33.780 121.200,33.600 121.560,33.600 122.000 C 33.600 122.440,33.420 122.800,33.200 122.800 C 32.980 122.800,32.800 123.250,32.800 123.800 C 32.800 124.350,32.620 124.800,32.400 124.800 C 32.180 124.800,32.000 125.160,32.000 125.600 C 32.000 126.040,31.820 126.400,31.600 126.400 C 31.380 126.400,31.200 126.760,31.200 127.200 C 31.200 127.640,31.020 128.000,30.800 128.000 C 30.580 128.000,30.400 128.360,30.400 128.800 C 30.400 129.240,30.220 129.600,30.000 129.600 C 29.780 129.600,29.600 129.960,29.600 130.400 C 29.600 130.840,29.420 131.200,29.200 131.200 C 28.980 131.200,28.800 131.740,28.800 132.400 C 28.800 133.060,28.620 133.600,28.400 133.600 C 28.180 133.600,28.000 134.050,28.000 134.600 C 28.000 135.150,27.820 135.600,27.600 135.600 C 27.380 135.600,27.200 136.140,27.200 136.800 C 27.200 137.460,27.020 138.000,26.800 138.000 C 26.580 138.000,26.400 138.360,26.400 138.800 C 26.400 139.240,26.220 139.600,26.000 139.600 C 25.780 139.600,25.600 140.125,25.600 140.767 C 25.600 141.408,25.418 141.994,25.196 142.068 C 24.974 142.142,24.716 142.595,24.624 143.075 C 24.532 143.555,24.263 144.308,24.028 144.748 C 23.793 145.188,23.600 145.919,23.600 146.374 C 23.600 146.828,23.420 147.200,23.200 147.200 C 22.980 147.200,22.800 147.729,22.800 148.376 C 22.800 149.023,22.620 149.664,22.400 149.800 C 22.180 149.936,22.000 150.476,22.000 151.000 C 22.000 151.524,21.820 152.064,21.600 152.200 C 21.380 152.336,21.200 153.157,21.200 154.024 C 21.200 154.891,21.020 155.600,20.800 155.600 C 20.580 155.600,20.400 156.140,20.400 156.800 C 20.400 157.460,20.220 158.000,20.000 158.000 C 19.780 158.000,19.600 158.720,19.600 159.600 C 19.600 160.480,19.420 161.200,19.200 161.200 C 18.980 161.200,18.800 162.190,18.800 163.400 C 18.800 164.610,18.620 165.600,18.400 165.600 C 18.180 165.600,18.000 166.500,18.000 167.600 C 18.000 168.700,17.820 169.600,17.600 169.600 C 17.380 169.600,17.200 170.500,17.200 171.600 C 17.200 172.700,17.020 173.600,16.800 173.600 C 16.569 173.600,16.400 174.867,16.400 176.600 C 16.400 178.333,16.231 179.600,16.000 179.600 C 15.765 179.600,15.600 180.986,15.600 182.957 C 15.600 185.381,15.452 186.371,15.068 186.518 C 14.665 186.673,14.515 188.155,14.447 192.661 C 14.398 195.953,14.189 198.659,13.979 198.733 C 13.476 198.910,13.476 212.690,13.979 212.867 C 14.189 212.941,14.398 215.647,14.447 218.939 C 14.515 223.445,14.665 224.927,15.068 225.082 C 15.452 225.229,15.600 226.219,15.600 228.643 C 15.600 230.614,15.765 232.000,16.000 232.000 C 16.231 232.000,16.400 233.267,16.400 235.000 C 16.400 236.733,16.569 238.000,16.800 238.000 C 17.020 238.000,17.200 238.900,17.200 240.000 C 17.200 241.100,17.380 242.000,17.600 242.000 C 17.820 242.000,18.000 242.990,18.000 244.200 C 18.000 245.410,18.180 246.400,18.400 246.400 C 18.620 246.400,18.800 247.199,18.800 248.176 C 18.800 249.153,18.980 250.064,19.200 250.200 C 19.420 250.336,19.600 251.157,19.600 252.024 C 19.600 252.891,19.780 253.600,20.000 253.600 C 20.220 253.600,20.400 254.129,20.400 254.776 C 20.400 255.423,20.580 256.064,20.800 256.200 C 21.020 256.336,21.200 257.056,21.200 257.800 C 21.200 258.544,21.380 259.264,21.600 259.400 C 21.820 259.536,22.000 260.177,22.000 260.824 C 22.000 261.471,22.180 262.000,22.400 262.000 C 22.620 262.000,22.800 262.540,22.800 263.200 C 22.800 263.860,22.980 264.400,23.200 264.400 C 23.420 264.400,23.600 264.772,23.600 265.226 C 23.600 265.681,23.793 266.412,24.028 266.852 C 24.263 267.292,24.532 268.045,24.624 268.525 C 24.716 269.005,24.974 269.458,25.196 269.532 C 25.418 269.606,25.600 270.192,25.600 270.833 C 25.600 271.475,25.780 272.000,26.000 272.000 C 26.220 272.000,26.400 272.360,26.400 272.800 C 26.400 273.240,26.580 273.600,26.800 273.600 C 27.020 273.600,27.200 274.140,27.200 274.800 C 27.200 275.460,27.380 276.000,27.600 276.000 C 27.820 276.000,28.000 276.450,28.000 277.000 C 28.000 277.550,28.180 278.000,28.400 278.000 C 28.620 278.000,28.800 278.439,28.800 278.976 C 28.800 279.513,28.980 280.064,29.200 280.200 C 29.420 280.336,29.600 280.797,29.600 281.224 C 29.600 281.651,29.780 282.000,30.000 282.000 C 30.220 282.000,30.400 282.360,30.400 282.800 C 30.400 283.240,30.580 283.600,30.800 283.600 C 31.020 283.600,31.200 283.960,31.200 284.400 C 31.200 284.840,31.380 285.200,31.600 285.200 C 31.820 285.200,32.000 285.465,32.000 285.788 C 32.000 286.111,32.360 287.017,32.800 287.800 C 33.240 288.583,33.600 289.489,33.600 289.812 C 33.600 290.135,33.780 290.400,34.000 290.400 C 34.220 290.400,34.400 290.676,34.400 291.013 C 34.400 291.349,34.670 291.729,35.000 291.855 C 35.330 291.982,35.600 292.426,35.600 292.843 C 35.600 293.259,35.780 293.600,36.000 293.600 C 36.220 293.600,36.400 293.960,36.400 294.400 C 36.400 294.840,36.580 295.200,36.800 295.200 C 37.020 295.200,37.200 295.526,37.200 295.925 C 37.200 296.323,37.560 297.036,38.000 297.508 C 38.440 297.980,38.800 298.644,38.800 298.983 C 38.800 299.322,38.980 299.600,39.200 299.600 C 39.420 299.600,39.600 299.960,39.600 300.400 C 39.600 300.840,39.780 301.200,40.000 301.200 C 40.220 301.200,40.400 301.436,40.400 301.725 C 40.400 302.013,40.760 302.636,41.200 303.108 C 41.640 303.580,42.000 304.244,42.000 304.583 C 42.000 304.922,42.141 305.200,42.314 305.200 C 42.486 305.200,42.969 305.785,43.385 306.500 C 43.802 307.215,44.471 308.091,44.872 308.447 C 45.272 308.803,45.600 309.348,45.600 309.659 C 45.600 309.969,45.960 310.483,46.400 310.800 C 46.840 311.117,47.200 311.657,47.200 312.000 C 47.200 312.343,47.560 312.883,48.000 313.200 C 48.440 313.517,48.800 314.005,48.800 314.284 C 48.800 314.753,49.479 315.730,50.700 317.016 C 50.975 317.306,51.200 317.709,51.200 317.912 C 51.200 318.115,51.740 318.846,52.400 319.537 C 53.060 320.228,53.600 320.908,53.600 321.048 C 53.600 321.188,54.590 322.254,55.800 323.417 C 57.010 324.580,58.000 325.784,58.000 326.094 C 58.000 326.759,64.529 333.600,65.164 333.600 C 65.404 333.600,65.600 333.867,65.600 334.193 C 65.600 334.519,66.095 335.340,66.700 336.018 C 69.547 339.205,70.774 340.400,71.200 340.400 C 71.454 340.400,72.354 341.120,73.200 342.000 C 74.046 342.880,74.862 343.600,75.015 343.600 C 75.350 343.600,78.000 346.450,78.000 346.811 C 78.000 346.950,78.489 347.320,79.088 347.632 C 79.686 347.945,81.054 349.055,82.128 350.100 C 83.202 351.145,84.351 352.000,84.680 352.000 C 85.009 352.000,85.783 352.540,86.400 353.200 C 87.017 353.860,87.744 354.400,88.016 354.400 C 88.288 354.400,89.048 355.030,89.706 355.800 C 90.364 356.570,91.066 357.200,91.268 357.200 C 91.469 357.200,92.020 357.560,92.492 358.000 C 92.964 358.440,93.637 358.800,93.987 358.800 C 94.337 358.800,94.883 359.160,95.200 359.600 C 95.517 360.040,96.057 360.400,96.400 360.400 C 96.743 360.400,97.283 360.760,97.600 361.200 C 97.917 361.640,98.457 362.000,98.800 362.000 C 99.143 362.000,99.683 362.360,100.000 362.800 C 100.317 363.240,100.897 363.600,101.288 363.600 C 101.680 363.600,102.000 363.780,102.000 364.000 C 102.000 364.220,102.281 364.400,102.624 364.400 C 102.967 364.400,103.136 364.580,103.000 364.800 C 102.864 365.020,103.101 365.200,103.527 365.200 C 103.953 365.200,104.526 365.470,104.800 365.800 C 105.074 366.130,105.546 366.400,105.849 366.400 C 106.152 366.400,106.400 366.580,106.400 366.800 C 106.400 367.020,106.720 367.200,107.112 367.200 C 107.503 367.200,108.083 367.560,108.400 368.000 C 108.717 368.440,109.190 368.800,109.451 368.800 C 110.051 368.800,113.355 370.500,113.533 370.900 C 113.607 371.065,114.102 371.200,114.633 371.200 C 115.165 371.200,115.600 371.380,115.600 371.600 C 115.600 371.820,115.960 372.000,116.400 372.000 C 116.840 372.000,117.200 372.180,117.200 372.400 C 117.200 372.620,117.560 372.800,118.000 372.800 C 118.440 372.800,118.800 372.980,118.800 373.200 C 118.800 373.420,119.160 373.600,119.600 373.600 C 120.040 373.600,120.400 373.780,120.400 374.000 C 120.400 374.220,120.760 374.400,121.200 374.400 C 121.640 374.400,122.000 374.580,122.000 374.800 C 122.000 375.020,122.315 375.206,122.700 375.213 C 123.085 375.220,123.749 375.490,124.176 375.813 C 124.604 376.136,125.279 376.400,125.676 376.400 C 126.074 376.400,126.400 376.580,126.400 376.800 C 126.400 377.020,126.760 377.200,127.200 377.200 C 127.640 377.200,128.000 377.380,128.000 377.600 C 128.000 377.820,128.360 378.000,128.800 378.000 C 129.240 378.000,129.600 378.180,129.600 378.400 C 129.600 378.620,130.129 378.800,130.776 378.800 C 131.423 378.800,132.064 378.980,132.200 379.200 C 132.336 379.420,132.876 379.600,133.400 379.600 C 133.924 379.600,134.464 379.780,134.600 380.000 C 134.736 380.220,135.197 380.400,135.624 380.400 C 136.051 380.400,136.400 380.580,136.400 380.800 C 136.400 381.020,136.940 381.200,137.600 381.200 C 138.260 381.200,138.800 381.380,138.800 381.600 C 138.800 381.820,139.340 382.000,140.000 382.000 C 140.660 382.000,141.200 382.180,141.200 382.400 C 141.200 382.620,141.729 382.800,142.376 382.800 C 143.023 382.800,143.664 382.980,143.800 383.200 C 143.936 383.420,144.757 383.600,145.624 383.600 C 146.491 383.600,147.200 383.780,147.200 384.000 C 147.200 384.220,147.740 384.400,148.400 384.400 C 149.060 384.400,149.600 384.580,149.600 384.800 C 149.600 385.020,150.301 385.200,151.157 385.200 C 152.172 385.200,152.795 385.409,152.945 385.800 C 153.096 386.194,153.720 386.400,154.764 386.400 C 155.638 386.400,156.464 386.580,156.600 386.800 C 156.736 387.020,157.456 387.200,158.200 387.200 C 158.944 387.200,159.664 387.380,159.800 387.600 C 159.936 387.820,160.836 388.000,161.800 388.000 C 162.764 388.000,163.664 388.180,163.800 388.400 C 163.936 388.620,165.117 388.800,166.424 388.800 C 167.741 388.800,168.800 388.978,168.800 389.200 C 168.800 389.422,169.859 389.600,171.176 389.600 C 172.483 389.600,173.664 389.780,173.800 390.000 C 173.936 390.220,175.657 390.400,177.624 390.400 C 179.741 390.400,181.200 390.563,181.200 390.800 C 181.200 391.061,187.733 391.200,200.000 391.200 C 212.267 391.200,218.800 391.061,218.800 390.800 C 218.800 390.567,220.125 390.400,221.976 390.400 C 223.723 390.400,225.264 390.220,225.400 390.000 C 225.536 389.780,226.897 389.600,228.424 389.600 C 230.008 389.600,231.200 389.428,231.200 389.200 C 231.200 388.978,232.259 388.800,233.576 388.800 C 234.883 388.800,236.064 388.620,236.200 388.400 C 236.336 388.180,237.157 388.000,238.024 388.000 C 238.891 388.000,239.600 387.820,239.600 387.600 C 239.600 387.380,240.500 387.200,241.600 387.200 C 242.700 387.200,243.600 387.020,243.600 386.800 C 243.600 386.580,244.326 386.400,245.213 386.400 C 246.277 386.400,246.903 386.196,247.055 385.800 C 247.205 385.409,247.828 385.200,248.843 385.200 C 249.699 385.200,250.400 385.020,250.400 384.800 C 250.400 384.580,250.940 384.400,251.600 384.400 C 252.260 384.400,252.800 384.220,252.800 384.000 C 252.800 383.780,253.430 383.600,254.200 383.600 C 254.970 383.600,255.600 383.420,255.600 383.200 C 255.600 382.980,256.219 382.800,256.976 382.800 C 257.733 382.800,258.464 382.620,258.600 382.400 C 258.736 382.180,259.377 382.000,260.024 382.000 C 260.671 382.000,261.200 381.820,261.200 381.600 C 261.200 381.380,261.560 381.200,262.000 381.200 C 262.440 381.200,262.800 381.020,262.800 380.800 C 262.800 380.580,263.329 380.400,263.976 380.400 C 264.623 380.400,265.264 380.220,265.400 380.000 C 265.536 379.780,266.076 379.600,266.600 379.600 C 267.124 379.600,267.664 379.420,267.800 379.200 C 267.936 378.980,268.397 378.800,268.824 378.800 C 269.251 378.800,269.600 378.620,269.600 378.400 C 269.600 378.180,270.039 378.000,270.576 378.000 C 271.113 378.000,271.664 377.820,271.800 377.600 C 271.936 377.380,272.397 377.200,272.824 377.200 C 273.251 377.200,273.600 377.020,273.600 376.800 C 273.600 376.580,273.966 376.400,274.413 376.400 C 274.859 376.400,275.329 376.130,275.455 375.800 C 275.587 375.458,276.183 375.200,276.843 375.200 C 277.479 375.200,278.000 375.020,278.000 374.800 C 278.000 374.580,278.360 374.400,278.800 374.400 C 279.240 374.400,279.600 374.220,279.600 374.000 C 279.600 373.780,279.960 373.600,280.400 373.600 C 280.840 373.600,281.200 373.420,281.200 373.200 C 281.200 372.980,281.560 372.800,282.000 372.800 C 282.440 372.800,282.800 372.620,282.800 372.400 C 282.800 372.180,283.160 372.000,283.600 372.000 C 284.040 372.000,284.400 371.820,284.400 371.600 C 284.400 371.380,284.665 371.200,284.988 371.200 C 285.311 371.200,286.217 370.840,287.000 370.400 C 287.783 369.960,288.649 369.600,288.924 369.600 C 289.199 369.600,289.683 369.240,290.000 368.800 C 290.317 368.360,290.897 368.000,291.288 368.000 C 291.680 368.000,292.000 367.820,292.000 367.600 C 292.000 367.380,292.283 367.200,292.629 367.200 C 292.974 367.200,293.508 366.975,293.815 366.700 C 295.138 365.513,295.591 365.200,295.983 365.200 C 296.212 365.200,296.400 365.020,296.400 364.800 C 296.400 364.580,296.720 364.400,297.112 364.400 C 297.503 364.400,298.083 364.040,298.400 363.600 C 298.717 363.160,299.297 362.800,299.688 362.800 C 300.080 362.800,300.400 362.620,300.400 362.400 C 300.400 362.180,300.720 362.000,301.112 362.000 C 301.503 362.000,302.083 361.640,302.400 361.200 C 302.717 360.760,303.297 360.400,303.688 360.400 C 304.080 360.400,304.400 360.242,304.400 360.050 C 304.400 359.857,304.909 359.452,305.532 359.150 C 306.817 358.525,309.029 356.812,311.020 354.900 C 311.764 354.185,312.610 353.600,312.898 353.600 C 313.187 353.600,313.683 353.240,314.000 352.800 C 314.317 352.360,314.807 352.000,315.088 352.000 C 315.370 352.000,315.600 351.820,315.600 351.600 C 315.600 351.380,315.831 351.200,316.113 351.200 C 316.394 351.200,317.569 350.300,318.722 349.200 C 319.875 348.100,320.932 347.200,321.070 347.200 C 321.207 347.200,322.085 346.390,323.020 345.400 C 323.956 344.410,324.831 343.600,324.965 343.600 C 325.272 343.600,332.800 336.092,332.800 335.787 C 332.800 335.495,334.697 333.600,334.989 333.600 C 335.459 333.600,340.400 328.391,340.400 327.896 C 340.400 327.610,340.760 327.117,341.200 326.800 C 341.640 326.483,342.000 326.065,342.000 325.872 C 342.000 325.679,342.540 325.017,343.200 324.400 C 343.860 323.783,344.400 322.991,344.400 322.640 C 344.400 322.288,344.598 322.000,344.840 322.000 C 345.342 322.000,347.600 319.690,347.600 319.176 C 347.600 318.989,348.050 318.386,348.600 317.836 C 349.150 317.286,349.600 316.648,349.600 316.418 C 349.600 316.188,349.780 316.000,350.000 316.000 C 350.220 316.000,350.400 315.680,350.400 315.288 C 350.400 314.897,350.760 314.317,351.200 314.000 C 351.640 313.683,352.000 313.175,352.000 312.872 C 352.000 312.569,352.540 311.817,353.200 311.200 C 353.860 310.583,354.400 309.791,354.400 309.440 C 354.400 309.088,354.556 308.800,354.747 308.800 C 355.196 308.800,357.200 305.776,357.200 305.097 C 357.200 304.811,357.560 304.317,358.000 304.000 C 358.440 303.683,358.800 303.143,358.800 302.800 C 358.800 302.457,359.160 301.917,359.600 301.600 C 360.040 301.283,360.400 300.703,360.400 300.312 C 360.400 299.920,360.580 299.600,360.800 299.600 C 361.020 299.600,361.200 299.240,361.200 298.800 C 361.200 298.360,361.380 298.000,361.600 298.000 C 361.820 298.000,362.000 297.640,362.000 297.200 C 362.000 296.760,362.180 296.400,362.400 296.400 C 362.620 296.400,362.800 295.990,362.800 295.488 C 362.800 294.987,363.160 294.317,363.600 294.000 C 364.040 293.683,364.400 293.118,364.400 292.745 C 364.400 292.372,364.560 292.007,364.756 291.933 C 365.229 291.756,368.000 286.489,368.000 285.767 C 368.000 285.455,368.180 285.200,368.400 285.200 C 368.620 285.200,368.800 284.660,368.800 284.000 C 368.800 283.340,368.980 282.800,369.200 282.800 C 369.420 282.800,369.600 282.440,369.600 282.000 C 369.600 281.560,369.780 281.200,370.000 281.200 C 370.220 281.200,370.400 280.840,370.400 280.400 C 370.400 279.960,370.580 279.600,370.800 279.600 C 371.020 279.600,371.200 279.240,371.200 278.800 C 371.200 278.360,371.380 278.000,371.600 278.000 C 371.820 278.000,372.000 277.370,372.000 276.600 C 372.000 275.830,372.180 275.200,372.400 275.200 C 372.620 275.200,372.800 274.840,372.800 274.400 C 372.800 273.960,372.980 273.600,373.200 273.600 C 373.420 273.600,373.600 273.060,373.600 272.400 C 373.600 271.740,373.780 271.200,374.000 271.200 C 374.220 271.200,374.400 270.679,374.400 270.043 C 374.400 269.383,374.658 268.787,375.000 268.655 C 375.330 268.529,375.600 267.980,375.600 267.436 C 375.600 266.892,375.780 266.336,376.000 266.200 C 376.220 266.064,376.400 265.423,376.400 264.776 C 376.400 264.129,376.580 263.600,376.800 263.600 C 377.020 263.600,377.200 263.060,377.200 262.400 C 377.200 261.740,377.380 261.200,377.600 261.200 C 377.820 261.200,378.000 260.671,378.000 260.024 C 378.000 259.377,378.180 258.736,378.400 258.600 C 378.620 258.464,378.800 257.643,378.800 256.776 C 378.800 255.909,378.980 255.200,379.200 255.200 C 379.420 255.200,379.600 254.660,379.600 254.000 C 379.600 253.340,379.780 252.800,380.000 252.800 C 380.220 252.800,380.400 251.900,380.400 250.800 C 380.400 249.700,380.580 248.800,380.800 248.800 C 381.020 248.800,381.200 247.990,381.200 247.000 C 381.200 246.010,381.380 245.200,381.600 245.200 C 381.820 245.200,382.000 244.300,382.000 243.200 C 382.000 242.100,382.180 241.200,382.400 241.200 C 382.622 241.200,382.800 240.133,382.800 238.800 C 382.800 237.467,382.978 236.400,383.200 236.400 C 383.431 236.400,383.600 235.133,383.600 233.400 C 383.600 231.667,383.769 230.400,384.000 230.400 C 384.239 230.400,384.400 228.867,384.400 226.600 C 384.400 223.489,384.509 222.800,385.000 222.800 C 385.524 222.800,385.600 220.644,385.600 205.800 C 385.600 190.956,385.524 188.800,385.000 188.800 C 384.509 188.800,384.400 188.111,384.400 185.000 C 384.400 182.733,384.239 181.200,384.000 181.200 C 383.771 181.200,383.600 180.000,383.600 178.400 C 383.600 176.800,383.429 175.600,383.200 175.600 C 382.974 175.600,382.800 174.467,382.800 173.000 C 382.800 171.533,382.626 170.400,382.400 170.400 C 382.180 170.400,382.000 169.500,382.000 168.400 C 382.000 167.300,381.820 166.400,381.600 166.400 C 381.380 166.400,381.200 165.590,381.200 164.600 C 381.200 163.610,381.020 162.800,380.800 162.800 C 380.580 162.800,380.400 161.900,380.400 160.800 C 380.400 159.700,380.220 158.800,380.000 158.800 C 379.780 158.800,379.600 158.260,379.600 157.600 C 379.600 156.940,379.420 156.400,379.200 156.400 C 378.980 156.400,378.800 155.590,378.800 154.600 C 378.800 153.610,378.620 152.800,378.400 152.800 C 378.180 152.800,378.000 152.260,378.000 151.600 C 378.000 150.940,377.820 150.400,377.600 150.400 C 377.380 150.400,377.200 149.860,377.200 149.200 C 377.200 148.540,377.020 148.000,376.800 148.000 C 376.580 148.000,376.400 147.460,376.400 146.800 C 376.400 146.140,376.220 145.600,376.000 145.600 C 375.780 145.600,375.600 145.054,375.600 144.387 C 375.600 143.679,375.351 143.079,375.000 142.945 C 374.658 142.813,374.400 142.217,374.400 141.557 C 374.400 140.921,374.220 140.400,374.000 140.400 C 373.780 140.400,373.600 139.860,373.600 139.200 C 373.600 138.540,373.420 138.000,373.200 138.000 C 372.980 138.000,372.800 137.640,372.800 137.200 C 372.800 136.760,372.620 136.400,372.400 136.400 C 372.180 136.400,372.000 135.871,372.000 135.224 C 372.000 134.577,371.820 133.936,371.600 133.800 C 371.380 133.664,371.200 133.203,371.200 132.776 C 371.200 132.349,371.020 132.000,370.800 132.000 C 370.580 132.000,370.400 131.640,370.400 131.200 C 370.400 130.760,370.220 130.400,370.000 130.400 C 369.780 130.400,369.600 130.040,369.600 129.600 C 369.600 129.160,369.420 128.800,369.200 128.800 C 368.980 128.800,368.800 128.361,368.800 127.824 C 368.800 127.287,368.620 126.736,368.400 126.600 C 368.180 126.464,368.000 126.003,368.000 125.576 C 368.000 125.149,367.820 124.800,367.600 124.800 C 367.380 124.800,367.200 124.536,367.200 124.214 C 367.200 123.512,365.222 119.856,364.739 119.667 C 364.553 119.593,364.400 119.228,364.400 118.855 C 364.400 118.482,364.040 117.917,363.600 117.600 C 363.160 117.283,362.800 116.703,362.800 116.312 C 362.800 115.920,362.620 115.600,362.400 115.600 C 362.180 115.600,362.000 115.150,362.000 114.600 C 362.000 114.050,361.820 113.600,361.600 113.600 C 361.380 113.600,361.200 113.240,361.200 112.800 C 361.200 112.360,361.020 112.000,360.800 112.000 C 360.580 112.000,360.400 111.680,360.400 111.288 C 360.400 110.897,360.040 110.317,359.600 110.000 C 359.160 109.683,358.800 109.143,358.800 108.800 C 358.800 108.457,358.440 107.917,358.000 107.600 C 357.560 107.283,357.200 106.703,357.200 106.312 C 357.200 105.920,357.038 105.600,356.839 105.600 C 356.641 105.600,356.289 105.058,356.058 104.395 C 355.827 103.732,355.359 103.083,355.019 102.952 C 354.679 102.821,354.400 102.446,354.400 102.118 C 354.400 101.789,353.860 101.017,353.200 100.400 C 352.540 99.783,352.000 99.031,352.000 98.728 C 352.000 98.425,351.640 97.917,351.200 97.600 C 350.760 97.283,350.400 96.795,350.400 96.516 C 350.400 96.047,349.721 95.070,348.500 93.784 C 348.225 93.494,347.995 93.109,347.989 92.929 C 347.973 92.437,345.250 89.600,344.795 89.600 C 344.578 89.600,344.400 89.331,344.400 89.002 C 344.400 88.673,343.500 87.485,342.400 86.361 C 341.300 85.238,340.400 84.159,340.400 83.964 C 340.400 83.315,335.545 78.013,334.926 77.986 C 334.747 77.978,333.880 77.153,333.000 76.152 C 330.594 73.417,325.269 68.000,324.986 68.000 C 324.849 68.000,324.046 67.280,323.200 66.400 C 322.354 65.520,321.547 64.800,321.405 64.800 C 321.263 64.800,320.126 63.810,318.876 62.600 C 317.627 61.390,316.379 60.400,316.102 60.400 C 315.826 60.400,315.600 60.220,315.600 60.000 C 315.600 59.780,315.370 59.600,315.088 59.600 C 314.807 59.600,314.317 59.240,314.000 58.800 C 313.683 58.360,313.175 58.000,312.872 58.000 C 312.569 58.000,311.817 57.460,311.200 56.800 C 310.583 56.140,309.890 55.600,309.659 55.600 C 309.428 55.600,308.645 55.015,307.919 54.300 C 307.194 53.585,306.240 52.803,305.800 52.562 C 303.537 51.325,302.954 50.942,302.357 50.300 C 301.999 49.915,301.412 49.600,301.053 49.600 C 300.694 49.600,300.400 49.420,300.400 49.200 C 300.400 48.980,300.080 48.800,299.688 48.800 C 299.297 48.800,298.717 48.440,298.400 48.000 C 298.083 47.560,297.503 47.200,297.112 47.200 C 296.720 47.200,296.400 47.020,296.400 46.800 C 296.400 46.580,296.130 46.400,295.800 46.400 C 295.470 46.400,295.200 46.220,295.200 46.000 C 295.200 45.780,294.859 45.600,294.443 45.600 C 294.026 45.600,293.582 45.330,293.455 45.000 C 293.329 44.670,292.949 44.400,292.613 44.400 C 292.276 44.400,292.000 44.220,292.000 44.000 C 292.000 43.780,291.640 43.600,291.200 43.600 C 290.760 43.600,290.400 43.450,290.400 43.267 C 290.400 42.864,285.711 40.400,284.944 40.400 C 284.645 40.400,284.400 40.220,284.400 40.000 C 284.400 39.780,284.040 39.600,283.600 39.600 C 283.160 39.600,282.800 39.420,282.800 39.200 C 282.800 38.980,282.440 38.800,282.000 38.800 C 281.560 38.800,281.200 38.620,281.200 38.400 C 281.200 38.180,280.840 38.000,280.400 38.000 C 279.960 38.000,279.600 37.820,279.600 37.600 C 279.600 37.380,279.251 37.200,278.824 37.200 C 278.397 37.200,277.936 37.020,277.800 36.800 C 277.664 36.580,277.113 36.400,276.576 36.400 C 276.039 36.400,275.600 36.220,275.600 36.000 C 275.600 35.780,275.150 35.600,274.600 35.600 C 273.961 35.600,273.600 35.375,273.600 34.976 C 273.600 34.633,273.447 34.448,273.259 34.564 C 273.071 34.680,272.576 34.516,272.159 34.200 C 271.742 33.884,270.995 33.620,270.500 33.613 C 270.005 33.606,269.600 33.420,269.600 33.200 C 269.600 32.980,269.240 32.800,268.800 32.800 C 268.360 32.800,268.000 32.620,268.000 32.400 C 268.000 32.180,267.471 32.000,266.824 32.000 C 266.177 32.000,265.536 31.820,265.400 31.600 C 265.264 31.380,264.623 31.200,263.976 31.200 C 263.329 31.200,262.800 31.020,262.800 30.800 C 262.800 30.580,262.440 30.400,262.000 30.400 C 261.560 30.400,261.200 30.220,261.200 30.000 C 261.200 29.780,260.660 29.600,260.000 29.600 C 259.340 29.600,258.800 29.420,258.800 29.200 C 258.800 28.980,258.080 28.800,257.200 28.800 C 256.320 28.800,255.600 28.620,255.600 28.400 C 255.600 28.180,254.970 28.000,254.200 28.000 C 253.430 28.000,252.800 27.820,252.800 27.600 C 252.800 27.380,252.260 27.200,251.600 27.200 C 250.940 27.200,250.400 27.020,250.400 26.800 C 250.400 26.580,249.680 26.400,248.800 26.400 C 247.920 26.400,247.200 26.220,247.200 26.000 C 247.200 25.780,246.409 25.600,245.443 25.600 C 244.371 25.600,243.608 25.397,243.486 25.081 C 243.375 24.789,242.522 24.517,241.544 24.461 C 240.585 24.405,239.740 24.189,239.667 23.980 C 239.593 23.771,238.738 23.600,237.767 23.600 C 236.795 23.600,236.000 23.420,236.000 23.200 C 236.000 22.978,234.933 22.800,233.600 22.800 C 232.267 22.800,231.200 22.622,231.200 22.400 C 231.200 22.172,230.008 22.000,228.424 22.000 C 226.897 22.000,225.536 21.820,225.400 21.600 C 225.264 21.380,223.723 21.200,221.976 21.200 C 220.125 21.200,218.800 21.033,218.800 20.800 C 218.800 20.276,181.915 20.248,181.380 20.772 M212.800 60.418 C 218.601 61.001,224.732 61.907,229.200 62.842 C 235.978 64.261,246.899 67.347,250.200 68.777 C 250.640 68.968,252.530 69.711,254.400 70.429 C 260.016 72.585,272.193 78.659,275.220 80.814 C 275.827 81.246,276.450 81.600,276.605 81.600 C 276.970 81.600,285.042 87.170,288.400 89.740 C 311.167 107.162,329.578 132.675,338.080 158.585 C 339.369 162.513,340.452 166.104,340.798 167.600 C 340.977 168.370,341.401 170.009,341.741 171.242 C 347.172 190.931,347.101 219.295,341.566 241.000 C 339.891 247.565,339.851 247.707,338.443 251.936 C 337.760 253.991,337.200 255.807,337.200 255.972 C 337.200 256.840,339.658 257.200,345.588 257.200 C 351.837 257.200,351.958 257.217,353.169 258.236 L 354.400 259.271 354.400 276.766 L 354.400 294.261 353.500 295.104 C 351.756 296.737,350.971 296.800,332.391 296.800 L 314.434 296.800 312.206 299.592 C 309.561 302.908,296.270 316.354,294.580 317.424 C 293.931 317.835,292.481 318.943,291.357 319.886 C 290.233 320.829,289.127 321.600,288.900 321.600 C 288.672 321.600,288.389 321.853,288.270 322.162 C 288.151 322.471,287.187 323.316,286.127 324.039 C 285.067 324.762,284.140 325.499,284.067 325.677 C 283.993 325.855,283.700 326.000,283.416 326.000 C 283.131 326.000,282.671 326.274,282.393 326.608 C 281.969 327.119,276.162 330.776,271.800 333.279 C 269.492 334.603,259.845 339.251,257.000 340.410 C 256.560 340.589,255.210 341.180,254.000 341.723 C 252.790 342.267,250.090 343.281,248.000 343.977 C 245.910 344.673,243.840 345.400,243.400 345.591 C 242.960 345.783,242.150 346.031,241.600 346.142 C 241.050 346.253,239.880 346.549,239.000 346.799 C 233.215 348.442,226.736 349.720,217.400 351.058 C 210.424 352.059,189.445 352.047,182.400 351.038 C 176.237 350.156,173.582 349.727,171.000 349.197 C 169.900 348.972,168.231 348.676,167.291 348.541 C 166.351 348.405,165.485 348.138,165.367 347.947 C 165.249 347.756,164.771 347.600,164.305 347.600 C 163.838 347.600,162.904 347.432,162.228 347.227 C 161.553 347.022,160.190 346.644,159.200 346.388 C 158.210 346.132,157.087 345.760,156.705 345.561 C 156.323 345.362,155.659 345.200,155.229 345.200 C 154.799 345.200,154.336 345.020,154.200 344.800 C 154.064 344.580,153.549 344.400,153.056 344.400 C 152.563 344.400,151.989 344.252,151.780 344.071 C 151.571 343.890,150.365 343.402,149.100 342.988 C 147.835 342.573,146.800 342.092,146.800 341.917 C 146.800 341.743,146.528 341.600,146.196 341.600 C 145.863 341.600,144.738 341.219,143.696 340.753 C 141.901 339.952,141.317 339.700,137.700 338.163 C 134.491 336.799,128.026 333.332,123.007 330.282 C 120.597 328.818,118.216 327.191,115.000 324.810 C 113.020 323.344,110.661 321.617,109.759 320.972 C 103.904 316.791,93.367 306.553,87.351 299.200 C 86.721 298.430,85.992 297.575,85.731 297.300 C 85.366 296.915,81.201 296.800,67.575 296.800 C 42.569 296.800,45.198 299.130,45.206 276.975 C 45.213 255.942,44.576 257.200,55.232 257.200 C 62.966 257.200,63.278 257.031,61.936 253.578 C 61.471 252.380,60.739 250.140,60.309 248.600 C 59.879 247.060,59.352 245.170,59.137 244.400 C 52.840 221.820,52.312 196.570,57.650 173.200 C 58.418 169.837,58.605 169.110,59.605 165.600 C 60.684 161.811,63.192 154.475,64.390 151.600 C 65.078 149.950,65.934 147.880,66.293 147.000 C 68.035 142.729,72.082 135.146,76.608 127.674 C 91.681 102.789,119.533 80.051,147.980 69.408 C 154.974 66.792,164.418 64.031,169.800 63.029 C 171.780 62.661,174.120 62.202,175.000 62.009 C 176.508 61.679,179.423 61.285,186.400 60.467 C 190.756 59.957,207.898 59.925,212.800 60.418 " stroke="none" fill="#6cecdc" fill-rule="evenodd"></path><path id="path2" d="M166.400 101.080 C 164.354 101.844,164.400 101.488,164.400 116.691 C 164.400 132.131,164.301 131.441,166.706 132.689 C 170.168 134.485,234.800 133.191,234.800 131.326 C 234.800 131.037,234.980 130.800,235.200 130.800 C 235.459 130.800,235.600 125.928,235.600 116.983 L 235.600 103.165 234.596 102.083 L 233.593 101.000 200.296 100.928 C 181.983 100.889,166.730 100.957,166.400 101.080 M124.813 142.684 C 122.084 143.222,122.001 143.665,122.000 157.615 L 122.000 170.230 120.848 171.611 L 119.695 172.991 111.499 173.216 C 100.434 173.519,101.200 172.478,101.200 187.209 C 101.200 201.582,101.461 201.200,91.639 201.200 C 86.077 201.201,85.748 201.246,84.700 202.147 L 83.600 203.093 83.600 214.352 C 83.600 222.624,83.467 225.844,83.100 226.490 C 81.572 229.177,80.152 229.600,72.667 229.600 C 66.547 229.600,66.503 229.606,65.455 230.655 L 64.400 231.709 64.400 243.600 L 64.400 255.491 63.413 256.478 C 61.890 258.001,59.835 258.400,53.523 258.400 C 45.186 258.400,46.000 256.381,46.000 277.056 L 46.000 293.861 46.926 294.730 C 47.849 295.598,47.904 295.600,66.493 295.600 C 85.013 295.600,86.399 295.666,86.401 296.543 C 86.403 297.088,90.975 302.442,91.863 302.939 C 92.535 303.316,157.049 303.004,195.200 302.440 C 208.070 302.250,233.630 301.873,252.000 301.604 C 270.370 301.334,290.836 301.212,297.480 301.332 L 309.560 301.551 311.380 299.495 C 312.381 298.364,313.200 297.270,313.200 297.064 C 313.200 295.709,314.361 295.626,333.318 295.613 L 352.036 295.600 353.018 294.618 L 354.000 293.636 353.987 276.918 C 353.974 259.067,354.039 259.653,351.914 258.294 C 350.999 257.710,349.821 257.600,344.445 257.600 C 337.413 257.600,335.600 256.983,335.600 254.588 C 335.600 254.071,335.420 253.536,335.200 253.400 C 334.949 253.245,334.800 248.937,334.800 241.799 C 334.800 227.943,335.558 229.201,327.211 229.198 C 320.709 229.195,318.974 228.865,317.449 227.340 L 316.400 226.291 316.400 215.140 C 316.400 200.267,316.890 201.087,307.829 200.786 C 297.777 200.452,298.000 200.798,298.000 185.562 L 298.000 174.693 296.900 173.747 C 295.829 172.826,295.604 172.801,288.391 172.800 L 280.982 172.800 279.491 171.571 L 278.000 170.342 278.000 157.994 C 278.000 150.194,277.853 145.556,277.600 145.400 C 277.380 145.264,277.200 144.881,277.200 144.548 C 277.200 142.817,277.009 142.800,257.704 142.800 C 239.773 142.800,239.331 142.819,238.473 143.617 L 237.596 144.435 237.698 220.397 C 237.800 296.064,237.797 296.360,237.000 296.574 C 235.391 297.006,228.170 296.810,227.680 296.320 C 227.361 296.001,227.200 294.257,227.200 291.115 C 227.200 286.535,226.979 285.482,225.729 284.115 C 225.048 283.372,174.172 283.357,173.471 284.100 C 172.488 285.143,172.000 287.594,172.000 291.496 C 172.000 297.089,172.236 296.801,167.657 296.795 C 165.536 296.792,163.440 296.692,163.000 296.574 C 162.203 296.360,162.200 296.064,162.302 220.564 L 162.404 144.770 161.399 143.685 L 160.393 142.600 143.097 142.545 C 133.583 142.514,125.356 142.577,124.813 142.684 M173.539 143.500 C 171.344 146.129,171.416 152.655,173.665 154.900 C 174.571 155.804,224.513 155.976,225.600 155.079 C 226.854 154.044,227.200 152.773,227.200 149.200 C 227.200 145.627,226.854 144.356,225.600 143.321 C 224.512 142.423,174.294 142.596,173.539 143.500 M173.413 167.413 L 172.000 168.827 172.000 172.713 C 172.001 176.314,172.077 176.688,173.033 177.800 L 174.065 179.000 199.600 179.000 L 225.135 179.000 226.167 177.800 C 227.123 176.688,227.199 176.314,227.200 172.713 L 227.200 168.827 225.787 167.413 L 224.373 166.000 199.600 166.000 L 174.827 166.000 173.413 167.413 M172.827 190.762 C 171.138 193.133,171.738 199.851,173.800 201.668 C 175.031 202.754,223.934 202.784,225.224 201.700 C 226.923 200.272,228.126 193.020,226.800 192.200 C 226.580 192.064,226.400 191.668,226.400 191.320 C 226.400 189.638,226.217 189.626,199.327 189.613 L 173.654 189.600 172.827 190.762 M173.300 213.398 C 173.025 213.711,172.800 214.244,172.800 214.583 C 172.800 214.922,172.620 215.200,172.400 215.200 C 170.888 215.200,172.224 223.436,173.973 224.900 C 174.952 225.719,224.800 226.014,224.800 225.200 C 224.800 224.980,225.057 224.800,225.371 224.800 C 227.665 224.800,227.947 215.741,225.729 213.315 C 224.994 212.513,174.009 212.593,173.300 213.398 M173.800 237.033 L 172.600 238.065 172.600 242.621 C 172.600 246.830,172.670 247.247,173.511 248.089 L 174.422 249.000 199.849 249.000 L 225.276 249.000 226.236 247.800 C 227.899 245.721,227.677 239.422,225.872 237.450 L 224.543 236.000 199.772 236.000 L 175.000 236.001 173.800 237.033 M173.600 260.458 C 172.637 261.259,172.600 261.464,172.600 266.003 C 172.600 273.179,169.314 272.400,199.600 272.400 C 229.889 272.400,226.600 273.181,226.600 265.992 C 226.600 258.862,229.708 259.597,199.639 259.613 C 174.878 259.626,174.589 259.636,173.600 260.458 M229.124 307.010 C 229.009 307.125,215.254 307.392,198.557 307.603 C 181.861 307.814,154.880 308.186,138.600 308.430 C 122.320 308.673,106.345 308.773,103.100 308.652 C 99.855 308.531,97.200 308.570,97.200 308.740 C 97.200 309.116,101.437 313.144,104.416 315.600 C 105.617 316.590,107.050 317.813,107.600 318.318 C 110.484 320.967,108.738 320.824,132.631 320.365 C 155.897 319.917,174.338 319.476,198.000 318.800 C 231.341 317.849,240.768 317.618,262.800 317.218 C 275.450 316.988,287.532 316.911,289.650 317.048 C 293.471 317.294,293.509 317.288,294.808 316.148 C 298.030 313.323,300.306 311.234,302.491 309.100 L 304.845 306.800 267.089 306.800 C 246.323 306.800,229.239 306.894,229.124 307.010 M262.732 322.201 C 262.621 322.312,254.086 322.599,243.765 322.839 C 233.444 323.078,219.330 323.430,212.400 323.621 C 205.470 323.812,193.680 324.084,186.200 324.226 C 178.720 324.368,172.429 324.645,172.220 324.842 C 172.009 325.041,164.587 325.200,155.544 325.200 C 145.111 325.200,139.158 325.344,139.000 325.600 C 138.845 325.850,134.828 326.000,128.276 326.001 L 117.800 326.002 120.400 327.703 C 123.995 330.056,128.545 332.748,131.400 334.213 C 132.720 334.890,134.160 335.638,134.600 335.875 C 137.257 337.308,137.083 337.300,159.663 337.053 C 189.276 336.730,232.740 336.116,251.189 335.759 L 266.178 335.470 269.174 333.882 C 270.822 333.009,273.617 331.373,275.385 330.246 C 277.153 329.119,279.095 327.942,279.700 327.631 C 280.305 327.320,280.800 326.915,280.800 326.732 C 280.800 326.550,281.025 326.400,281.300 326.399 C 281.575 326.399,282.430 325.859,283.200 325.200 C 283.970 324.541,284.743 324.001,284.917 324.001 C 285.092 324.000,285.720 323.550,286.313 323.000 L 287.392 322.000 275.163 322.000 C 268.436 322.000,262.843 322.091,262.732 322.201 M207.800 341.620 C 203.620 341.772,192.624 341.919,183.364 341.948 C 163.971 342.008,150.800 342.378,150.800 342.863 C 150.800 343.049,151.239 343.200,151.776 343.200 C 152.313 343.200,152.864 343.380,153.000 343.600 C 153.136 343.820,153.676 344.000,154.200 344.000 C 154.724 344.000,155.264 344.180,155.400 344.400 C 155.536 344.620,156.076 344.800,156.600 344.800 C 157.124 344.800,157.652 344.960,157.773 345.156 C 157.894 345.351,158.579 345.609,159.296 345.727 C 161.469 346.087,162.958 346.442,163.800 346.803 C 164.240 346.991,165.140 347.240,165.800 347.355 C 166.460 347.470,167.900 347.751,169.000 347.980 C 171.301 348.459,174.829 349.104,178.000 349.627 C 190.088 351.618,209.292 351.598,222.000 349.581 C 226.481 348.870,228.181 348.537,234.300 347.178 C 235.345 346.946,236.787 346.656,237.504 346.534 C 238.221 346.412,238.906 346.151,239.027 345.956 C 239.148 345.760,239.766 345.600,240.400 345.600 C 241.034 345.600,241.664 345.420,241.800 345.200 C 241.936 344.980,242.566 344.800,243.200 344.800 C 243.834 344.800,244.464 344.620,244.600 344.400 C 244.736 344.180,245.251 344.000,245.744 344.000 C 246.237 344.000,246.811 343.851,247.020 343.670 C 247.229 343.488,248.210 343.089,249.200 342.783 C 254.210 341.233,253.894 341.202,234.200 341.275 C 223.860 341.314,211.980 341.469,207.800 341.620 " stroke="none" fill="#f4941c" fill-rule="evenodd"></path><path id="path3" d="M165.690 100.802 C 164.970 101.241,164.205 102.062,163.990 102.626 C 163.474 103.983,163.474 129.617,163.990 130.974 C 165.042 133.740,163.266 133.616,200.274 133.502 L 233.548 133.400 234.774 132.225 L 236.000 131.050 236.000 116.754 L 236.000 102.458 234.509 101.229 L 233.018 100.000 200.009 100.001 C 167.723 100.003,166.971 100.020,165.690 100.802 M234.596 102.083 L 235.600 103.165 235.600 116.983 C 235.600 125.928,235.459 130.800,235.200 130.800 C 234.980 130.800,234.800 131.037,234.800 131.326 C 234.800 133.191,170.168 134.485,166.706 132.689 C 164.301 131.441,164.400 132.131,164.400 116.691 C 164.400 101.488,164.354 101.844,166.400 101.080 C 166.730 100.957,181.983 100.889,200.296 100.928 L 233.593 101.000 234.596 102.083 M124.467 142.143 C 121.619 143.175,121.619 143.174,121.609 156.854 C 121.597 173.379,122.230 172.369,111.874 172.387 C 104.407 172.401,103.845 172.510,101.900 174.324 L 100.800 175.350 100.800 186.444 L 100.800 197.539 99.824 198.699 C 98.436 200.349,96.434 200.800,90.508 200.800 C 82.576 200.800,82.800 200.369,82.800 215.619 L 82.800 225.939 81.764 227.169 L 80.729 228.400 74.552 228.400 C 63.653 228.400,64.000 227.919,64.000 243.020 L 64.000 254.688 62.952 256.233 C 62.205 257.333,62.119 257.609,62.652 257.189 C 64.375 255.833,64.374 255.838,64.387 243.555 L 64.400 231.709 65.455 230.655 C 66.503 229.606,66.547 229.600,72.667 229.600 C 80.152 229.600,81.572 229.177,83.100 226.490 C 83.467 225.844,83.600 222.624,83.600 214.352 L 83.600 203.093 84.700 202.147 C 85.748 201.246,86.077 201.201,91.639 201.200 C 101.461 201.200,101.200 201.582,101.200 187.209 C 101.200 172.478,100.434 173.519,111.499 173.216 L 119.695 172.991 120.848 171.611 L 122.000 170.230 122.000 157.615 L 122.001 145.000 123.033 143.800 L 124.065 142.600 142.229 142.600 L 160.392 142.600 161.398 143.685 L 162.404 144.770 162.302 220.564 C 162.200 296.064,162.203 296.360,163.000 296.574 C 163.440 296.692,165.536 296.792,167.657 296.795 C 172.236 296.801,172.000 297.089,172.000 291.496 C 172.000 287.594,172.488 285.143,173.471 284.100 C 174.172 283.357,225.048 283.372,225.729 284.115 C 226.979 285.482,227.200 286.535,227.200 291.115 C 227.200 294.257,227.361 296.001,227.680 296.320 C 228.170 296.810,235.391 297.006,237.000 296.574 C 237.797 296.360,237.800 296.064,237.698 220.397 L 237.596 144.435 238.473 143.617 C 239.331 142.819,239.773 142.800,257.704 142.800 C 277.009 142.800,277.200 142.817,277.200 144.548 C 277.200 144.881,277.380 145.264,277.600 145.400 C 277.853 145.556,278.000 150.194,278.000 157.994 L 278.000 170.342 279.491 171.571 L 280.982 172.800 288.391 172.800 C 295.604 172.801,295.829 172.826,296.900 173.747 L 298.000 174.693 298.000 185.562 C 298.000 200.798,297.777 200.452,307.829 200.786 C 316.890 201.087,316.400 200.267,316.400 215.140 L 316.400 226.291 317.449 227.340 C 318.974 228.865,320.709 229.195,327.211 229.198 C 335.558 229.201,334.800 227.943,334.800 241.799 C 334.800 248.937,334.949 253.245,335.200 253.400 C 335.420 253.536,335.600 254.055,335.600 254.554 C 335.600 255.423,336.732 256.753,338.000 257.375 C 338.330 257.537,338.216 257.339,337.747 256.935 C 336.082 255.501,336.000 254.867,336.000 243.413 C 336.000 227.875,336.339 228.400,326.303 228.400 C 320.809 228.400,319.622 228.292,318.789 227.718 C 316.810 226.354,316.826 226.464,316.813 214.313 L 316.800 202.827 315.387 201.413 L 313.973 200.000 307.793 200.000 L 301.613 200.000 300.306 198.833 L 299.000 197.667 298.800 185.995 L 298.600 174.323 297.400 173.363 C 296.238 172.434,295.981 172.404,289.287 172.402 C 277.847 172.399,278.400 173.169,278.400 157.233 C 278.400 140.191,280.841 141.914,256.933 142.077 L 238.867 142.200 238.033 143.161 C 237.575 143.690,237.156 144.140,237.103 144.161 C 237.049 144.183,236.914 178.310,236.803 220.000 L 236.600 295.800 232.200 295.800 L 227.800 295.800 227.600 290.600 C 227.270 282.013,230.095 282.800,199.600 282.800 C 169.265 282.800,171.951 282.033,171.600 290.800 L 171.400 295.800 167.400 295.800 L 163.400 295.800 163.200 220.382 C 162.976 135.945,163.272 143.509,160.143 142.202 C 158.247 141.410,126.637 141.358,124.467 142.143 M174.103 142.412 C 170.198 143.981,170.674 155.045,174.690 156.084 C 175.400 156.268,187.070 156.369,200.623 156.309 L 225.266 156.200 226.433 154.894 C 229.008 152.011,227.994 143.538,224.936 142.375 C 223.659 141.890,175.314 141.925,174.103 142.412 M225.600 143.321 C 226.854 144.356,227.200 145.627,227.200 149.200 C 227.200 152.773,226.854 154.044,225.600 155.079 C 224.513 155.976,174.571 155.804,173.665 154.900 C 171.416 152.655,171.344 146.129,173.539 143.500 C 174.294 142.596,224.512 142.423,225.600 143.321 M174.155 165.987 C 170.492 167.487,170.406 177.541,174.040 179.420 C 175.713 180.286,223.487 180.286,225.160 179.420 C 228.008 177.948,228.849 169.810,226.433 167.106 L 225.266 165.800 200.133 165.721 C 186.310 165.677,174.620 165.797,174.155 165.987 M225.787 167.413 L 227.200 168.827 227.200 172.713 C 227.199 176.314,227.123 176.688,226.167 177.800 L 225.135 179.000 199.600 179.000 L 174.065 179.000 173.033 177.800 C 172.077 176.688,172.001 176.314,172.000 172.713 L 172.000 168.827 173.413 167.413 L 174.827 166.000 199.600 166.000 L 224.373 166.000 225.787 167.413 M174.181 188.962 C 172.027 189.901,171.598 191.055,171.613 195.886 C 171.635 203.383,169.262 202.800,199.742 202.800 L 224.906 202.800 226.253 201.372 C 228.904 198.560,228.056 190.251,224.986 188.968 C 223.045 188.157,176.042 188.152,174.181 188.962 M225.700 190.157 C 226.085 190.449,226.400 190.973,226.400 191.320 C 226.400 191.668,226.580 192.064,226.800 192.200 C 228.126 193.020,226.923 200.272,225.224 201.700 C 223.934 202.784,175.031 202.754,173.800 201.668 C 171.738 199.851,171.138 193.133,172.827 190.762 L 173.654 189.600 199.327 189.613 C 220.041 189.623,225.135 189.728,225.700 190.157 M172.960 213.360 L 171.600 214.720 171.600 218.946 C 171.600 223.103,171.620 223.195,172.841 224.586 L 174.083 226.000 199.541 225.991 C 227.368 225.981,225.940 226.099,227.153 223.726 C 227.767 222.526,227.715 214.778,227.087 213.982 C 225.464 211.922,226.553 212.000,199.471 212.000 L 174.320 212.000 172.960 213.360 M225.729 213.315 C 227.947 215.741,227.665 224.800,225.371 224.800 C 225.057 224.800,224.800 224.980,224.800 225.200 C 224.800 226.014,174.952 225.719,173.973 224.900 C 172.224 223.436,170.888 215.200,172.400 215.200 C 172.620 215.200,172.800 214.922,172.800 214.583 C 172.800 212.801,172.341 212.831,199.529 212.815 C 220.028 212.803,225.353 212.905,225.729 213.315 M174.152 236.065 C 170.706 237.735,170.570 246.758,173.956 249.168 C 175.492 250.262,223.080 250.496,225.160 249.420 C 228.472 247.708,228.795 238.151,225.604 236.266 C 224.256 235.469,175.773 235.280,174.152 236.065 M225.872 237.450 C 227.677 239.422,227.899 245.721,226.236 247.800 L 225.276 249.000 199.849 249.000 L 174.422 249.000 173.511 248.089 C 172.670 247.247,172.600 246.830,172.600 242.621 L 172.600 238.065 173.800 237.033 L 175.000 236.001 199.772 236.000 L 224.543 236.000 225.872 237.450 M51.318 258.298 C 53.033 258.373,55.733 258.372,57.318 258.297 C 58.903 258.221,57.500 258.159,54.200 258.160 C 50.900 258.161,49.603 258.222,51.318 258.298 M173.905 259.426 C 170.440 261.306,170.684 271.463,174.226 272.810 C 174.852 273.048,184.751 273.200,199.600 273.200 C 214.449 273.200,224.348 273.048,224.974 272.810 C 228.688 271.398,228.688 260.602,224.974 259.190 C 223.132 258.490,175.222 258.711,173.905 259.426 M225.639 260.434 C 226.552 261.226,226.600 261.501,226.600 265.992 C 226.600 273.181,229.889 272.400,199.600 272.400 C 169.314 272.400,172.600 273.179,172.600 266.003 C 172.600 258.901,169.519 259.629,199.639 259.613 C 224.450 259.600,224.686 259.608,225.639 260.434 M45.782 277.000 C 45.782 285.800,45.835 289.343,45.900 284.873 C 45.964 280.404,45.964 273.204,45.899 268.873 C 45.835 264.543,45.782 268.200,45.782 277.000 M66.833 295.992 L 85.467 296.200 86.433 297.220 C 86.965 297.780,87.175 297.946,86.900 297.588 C 86.625 297.230,86.400 296.745,86.400 296.511 C 86.400 295.666,84.854 295.601,66.667 295.692 L 48.200 295.784 66.833 295.992 M313.829 296.209 C 313.405 296.529,313.182 296.915,313.333 297.067 C 313.485 297.218,313.831 297.040,314.104 296.672 C 314.553 296.065,316.346 295.992,333.200 295.897 L 351.800 295.792 333.200 295.709 C 317.433 295.638,314.483 295.714,313.829 296.209 M89.692 301.200 L 91.903 303.800 107.252 303.931 C 124.695 304.080,187.665 303.371,208.400 302.791 C 215.990 302.579,241.817 302.314,265.793 302.202 L 309.385 301.999 310.593 300.709 L 311.800 299.418 310.600 300.484 L 309.400 301.549 297.400 301.332 C 290.800 301.212,270.370 301.335,252.000 301.604 C 233.630 301.874,208.070 302.250,195.200 302.440 C 182.330 302.630,153.848 302.899,131.906 303.036 L 92.012 303.286 89.747 300.943 L 87.481 298.600 89.692 301.200 M224.200 306.426 C 212.100 306.590,193.470 306.923,182.800 307.168 C 172.130 307.412,148.255 307.654,129.745 307.706 L 96.090 307.800 96.806 308.800 C 97.200 309.350,98.034 310.248,98.661 310.796 C 99.624 311.639,99.599 311.574,98.500 310.377 C 96.659 308.373,96.642 308.381,102.500 308.643 C 105.415 308.774,122.110 308.661,139.600 308.393 C 209.134 307.326,219.748 307.202,261.400 306.966 C 285.160 306.831,304.870 306.564,305.200 306.373 C 305.907 305.962,256.121 305.995,224.200 306.426 M298.473 312.850 C 297.523 313.746,296.805 314.538,296.876 314.610 C 296.948 314.681,297.850 313.944,298.880 312.970 C 299.910 311.997,300.629 311.205,300.477 311.210 C 300.325 311.216,299.423 311.953,298.473 312.850 M102.777 314.537 C 103.094 314.939,105.125 316.692,107.290 318.434 L 111.227 321.600 118.222 321.600 C 122.070 321.600,129.669 321.425,135.109 321.211 C 140.549 320.998,153.370 320.628,163.600 320.390 C 173.830 320.151,190.930 319.678,201.600 319.338 C 235.292 318.264,246.782 318.000,270.610 317.756 L 293.819 317.517 295.148 316.330 C 295.878 315.677,296.408 315.074,296.324 314.990 C 296.240 314.906,295.579 315.391,294.854 316.068 L 293.538 317.299 289.669 317.049 C 287.541 316.912,275.450 316.988,262.800 317.218 C 240.768 317.618,231.341 317.849,198.000 318.800 C 174.338 319.476,155.897 319.917,132.631 320.365 C 108.738 320.824,110.484 320.967,107.600 318.318 C 105.592 316.474,102.216 313.827,102.777 314.537 M253.133 321.800 C 253.023 321.910,245.028 322.193,235.366 322.429 C 225.705 322.665,212.040 323.019,205.000 323.216 C 191.586 323.592,175.393 324.023,139.400 324.962 C 127.520 325.273,117.755 325.543,117.700 325.563 C 117.645 325.583,117.600 325.735,117.600 325.900 C 117.599 326.349,138.518 326.042,138.973 325.587 C 139.210 325.350,145.680 325.200,155.600 325.200 C 164.661 325.200,172.008 325.041,172.220 324.840 C 172.429 324.643,178.630 324.371,186.000 324.237 C 193.370 324.102,205.520 323.816,213.000 323.601 C 271.764 321.908,287.550 321.696,286.796 322.608 C 286.236 323.285,286.254 323.295,287.100 322.768 C 287.595 322.460,288.000 322.071,288.000 321.904 C 288.000 321.574,253.462 321.471,253.133 321.800 M283.829 324.629 C 283.405 324.938,283.136 325.269,283.230 325.363 C 283.324 325.457,283.748 325.281,284.171 324.971 C 284.595 324.662,284.864 324.331,284.770 324.237 C 284.676 324.143,284.252 324.319,283.829 324.629 M118.400 326.595 C 118.400 326.698,119.615 327.565,121.100 328.521 C 125.440 331.314,126.060 331.673,126.237 331.497 C 126.329 331.405,125.548 330.847,124.502 330.257 C 123.456 329.667,121.655 328.559,120.500 327.796 C 119.345 327.032,118.400 326.492,118.400 326.595 M276.227 329.637 C 274.017 331.104,272.874 331.994,273.800 331.526 C 274.839 331.002,279.200 328.270,279.200 328.143 C 279.200 327.788,278.432 328.174,276.227 329.637 M132.400 334.990 C 132.400 335.094,132.985 335.465,133.700 335.814 L 135.000 336.448 134.000 335.633 C 133.037 334.848,132.400 334.592,132.400 334.990 M244.732 335.802 C 244.550 335.984,210.968 336.507,157.000 337.169 C 143.330 337.337,137.443 337.534,138.400 337.792 C 139.170 337.999,139.980 338.102,140.200 338.020 C 140.420 337.938,152.120 337.736,166.200 337.571 C 245.337 336.647,264.984 336.336,265.564 335.996 C 265.968 335.760,262.315 335.620,255.567 335.612 C 249.718 335.605,244.843 335.691,244.732 335.802 M213.000 340.872 C 203.540 341.054,185.000 341.337,171.800 341.501 C 148.519 341.791,147.841 341.821,149.173 342.506 C 150.132 342.998,150.628 343.078,150.820 342.768 C 151.100 342.315,183.929 341.743,231.993 341.353 C 245.488 341.244,254.338 341.022,254.573 340.787 C 255.021 340.339,239.120 340.372,213.000 340.872 M159.600 346.000 C 159.930 346.213,160.470 346.388,160.800 346.388 C 161.333 346.388,161.333 346.345,160.800 346.000 C 160.470 345.787,159.930 345.612,159.600 345.612 C 159.067 345.612,159.067 345.655,159.600 346.000 M239.000 346.000 C 238.708 346.473,239.099 346.473,240.200 346.000 C 240.971 345.669,240.969 345.655,240.124 345.628 C 239.642 345.613,239.136 345.780,239.000 346.000 M236.000 346.800 C 235.467 347.145,235.467 347.188,236.000 347.188 C 236.330 347.188,236.870 347.013,237.200 346.800 C 237.733 346.455,237.733 346.412,237.200 346.412 C 236.870 346.412,236.330 346.587,236.000 346.800 M165.800 347.600 C 166.996 348.114,167.995 348.114,167.200 347.600 C 166.870 347.387,166.240 347.222,165.800 347.234 L 165.000 347.256 165.800 347.600 M232.400 347.600 C 231.636 348.094,232.458 348.094,234.000 347.600 L 235.000 347.280 234.000 347.246 C 233.450 347.227,232.730 347.387,232.400 347.600 M168.433 348.147 C 168.525 348.228,169.320 348.404,170.200 348.538 C 171.315 348.707,171.558 348.671,171.000 348.419 C 170.232 348.071,168.090 347.844,168.433 348.147 M228.800 348.400 C 228.036 348.894,228.858 348.894,230.400 348.400 L 231.400 348.080 230.400 348.046 C 229.850 348.027,229.130 348.187,228.800 348.400 M172.433 348.944 C 172.525 349.024,173.410 349.196,174.400 349.327 C 175.602 349.486,175.934 349.447,175.400 349.210 C 174.636 348.872,172.086 348.643,172.433 348.944 M224.400 349.200 L 223.400 349.520 224.400 349.513 C 224.950 349.509,225.940 349.368,226.600 349.200 L 227.800 348.895 226.600 348.887 C 225.940 348.883,224.950 349.024,224.400 349.200 M177.105 349.883 C 177.602 349.979,178.322 349.975,178.705 349.875 C 179.087 349.775,178.680 349.696,177.800 349.701 C 176.920 349.705,176.607 349.787,177.105 349.883 M221.105 349.883 C 221.602 349.979,222.322 349.975,222.705 349.875 C 223.087 349.775,222.680 349.696,221.800 349.701 C 220.920 349.705,220.607 349.787,221.105 349.883 M180.100 350.276 C 180.485 350.376,181.115 350.376,181.500 350.276 C 181.885 350.175,181.570 350.093,180.800 350.093 C 180.030 350.093,179.715 350.175,180.100 350.276 M218.100 350.276 C 218.485 350.376,219.115 350.376,219.500 350.276 C 219.885 350.175,219.570 350.093,218.800 350.093 C 218.030 350.093,217.715 350.175,218.100 350.276 M187.800 351.048 C 193.699 351.671,210.051 351.533,215.000 350.819 C 216.705 350.573,216.125 350.549,213.000 350.736 C 207.283 351.079,192.664 351.075,186.800 350.729 L 182.200 350.457 187.800 351.048 " stroke="none" fill="#fbac55" fill-rule="evenodd"></path><path id="path4" d="M336.633 255.676 C 337.197 257.303,338.489 257.600,344.991 257.600 C 351.253 257.600,352.325 257.802,353.479 259.200 C 353.855 259.656,353.978 263.905,353.987 276.864 L 354.000 293.929 352.769 294.964 L 351.539 296.000 333.055 296.000 L 314.572 296.000 313.197 297.700 C 312.440 298.635,311.161 300.077,310.354 300.903 C 309.547 301.730,309.020 302.489,309.182 302.589 C 309.505 302.788,310.620 301.636,312.947 298.700 L 314.454 296.800 332.401 296.800 C 350.971 296.800,351.757 296.737,353.500 295.104 L 354.400 294.261 354.400 276.766 L 354.400 259.271 353.169 258.236 C 351.958 257.216,351.840 257.200,345.543 257.200 C 339.110 257.200,337.972 256.994,336.899 255.635 C 336.448 255.063,336.421 255.067,336.633 255.676 M62.000 256.600 C 61.596 257.087,60.319 257.200,55.245 257.200 C 44.573 257.200,45.213 255.939,45.206 276.975 C 45.198 299.130,42.569 296.800,67.575 296.800 C 81.255 296.800,85.364 296.914,85.729 297.303 C 85.988 297.579,87.043 298.794,88.073 300.003 C 91.177 303.643,91.881 304.400,92.161 304.400 C 92.309 304.400,91.296 303.095,89.912 301.500 C 88.527 299.905,86.974 298.060,86.461 297.400 L 85.528 296.200 66.575 296.000 L 47.621 295.800 46.711 294.889 L 45.800 293.978 45.800 277.000 L 45.800 260.022 46.710 259.111 C 47.570 258.250,48.006 258.189,54.599 258.000 C 61.166 257.812,61.631 257.747,62.478 256.900 C 62.973 256.405,63.180 256.000,62.938 256.000 C 62.696 256.000,62.274 256.270,62.000 256.600 M304.929 306.833 C 304.212 307.727,299.326 312.524,295.400 316.187 C 294.300 317.213,293.760 317.873,294.200 317.654 C 295.472 317.018,306.229 306.520,305.929 306.207 C 305.779 306.051,305.329 306.333,304.929 306.833 M95.785 308.522 C 96.118 309.029,97.067 310.040,97.895 310.770 C 98.723 311.500,100.400 313.020,101.623 314.148 C 105.992 318.181,111.084 322.250,111.385 321.948 C 111.466 321.867,109.792 320.416,107.666 318.724 C 105.540 317.032,101.935 313.837,99.654 311.624 C 95.335 307.431,94.779 306.985,95.785 308.522 M288.000 321.847 C 288.000 322.056,287.467 322.543,286.815 322.928 C 286.163 323.313,285.398 323.857,285.115 324.136 C 282.878 326.343,267.464 335.502,264.450 336.413 C 263.563 336.682,263.531 336.737,264.245 336.766 C 265.746 336.827,280.997 328.291,282.393 326.608 C 282.671 326.274,283.146 326.000,283.449 326.000 C 283.752 326.000,284.000 325.865,284.001 325.700 C 284.001 325.535,284.794 324.900,285.762 324.288 C 287.732 323.043,288.642 322.108,288.257 321.724 C 288.116 321.582,288.000 321.638,288.000 321.847 M116.400 325.788 C 116.400 326.127,122.460 330.073,122.666 329.868 C 122.776 329.757,121.903 329.051,120.726 328.298 C 119.549 327.545,118.315 326.675,117.984 326.365 C 117.376 325.795,116.400 325.440,116.400 325.788 M123.340 330.302 C 123.703 330.890,127.611 333.110,134.600 336.699 C 137.490 338.183,138.962 338.747,139.337 338.516 C 139.540 338.390,138.933 338.026,137.989 337.707 C 136.138 337.082,127.450 332.650,126.800 332.000 C 126.291 331.491,123.110 329.930,123.340 330.302 M254.400 341.000 C 254.126 341.330,253.575 341.600,253.175 341.600 C 252.775 341.600,252.358 341.744,252.249 341.921 C 252.140 342.097,251.128 342.493,250.000 342.800 C 248.872 343.107,247.860 343.503,247.751 343.679 C 247.642 343.856,247.124 344.000,246.600 344.000 C 246.076 344.000,245.549 344.159,245.429 344.354 C 245.308 344.549,244.713 344.803,244.105 344.920 C 243.497 345.037,241.650 345.525,240.000 346.005 C 238.350 346.484,234.840 347.395,232.200 348.029 C 229.560 348.663,228.120 349.108,229.000 349.017 C 231.039 348.806,235.115 347.902,239.000 346.799 C 239.880 346.549,241.050 346.253,241.600 346.142 C 242.150 346.031,242.960 345.783,243.400 345.591 C 243.840 345.400,245.885 344.678,247.945 343.988 C 250.004 343.298,252.524 342.351,253.545 341.885 C 254.565 341.418,255.760 340.911,256.200 340.758 C 256.892 340.517,256.859 340.474,255.949 340.440 C 255.371 340.418,254.674 340.670,254.400 341.000 M147.266 341.959 C 147.016 342.114,147.840 342.575,149.107 342.990 C 150.368 343.403,151.571 343.890,151.780 344.071 C 151.989 344.252,152.563 344.400,153.056 344.400 C 153.549 344.400,154.064 344.580,154.200 344.800 C 154.336 345.020,154.799 345.200,155.229 345.200 C 155.659 345.200,156.323 345.362,156.705 345.561 C 157.087 345.760,158.210 346.132,159.200 346.388 C 160.190 346.644,161.553 347.022,162.228 347.227 C 162.904 347.432,163.838 347.600,164.305 347.600 C 164.771 347.600,165.264 347.780,165.400 348.000 C 165.536 348.220,166.111 348.400,166.677 348.400 C 167.244 348.400,168.358 348.567,169.154 348.772 C 172.490 349.630,175.089 350.079,175.820 349.925 C 176.249 349.834,174.825 349.434,172.655 349.035 C 170.486 348.636,167.336 347.956,165.655 347.523 C 161.515 346.457,159.607 345.992,158.295 345.729 C 157.687 345.607,157.092 345.349,156.971 345.154 C 156.851 344.959,156.401 344.800,155.971 344.800 C 155.541 344.800,154.877 344.638,154.495 344.439 C 154.113 344.240,152.990 343.844,152.000 343.558 C 151.010 343.271,149.642 342.732,148.959 342.358 C 148.276 341.985,147.514 341.806,147.266 341.959 M224.400 349.600 L 223.000 349.895 224.400 349.919 C 225.170 349.933,226.160 349.789,226.600 349.600 L 227.400 349.256 226.600 349.281 C 226.160 349.294,225.170 349.438,224.400 349.600 M177.246 350.157 C 179.165 352.254,220.849 352.245,222.764 350.147 C 222.894 350.004,222.010 350.008,220.800 350.155 C 205.446 352.019,192.608 352.021,179.000 350.161 C 177.900 350.010,177.111 350.009,177.246 350.157 " stroke="none" fill="#b4bc7c" fill-rule="evenodd"></path></g></svg>